<svg width="56" height="56" viewBox="0 0 56 56" fill="none" xmlns="http://www.w3.org/2000/svg">
<rect width="56" height="56" fill="white"/>
<path d="M35.4136 17.3642C35.4136 23.4637 31.6408 28.6041 26.4855 30.2096C24.2687 30.8989 21.8948 30.8989 19.678 30.2096C14.5228 28.6097 10.75 23.4656 10.75 17.3642C10.75 9.98337 16.2705 4 23.0818 4C29.893 4 35.4136 9.98337 35.4136 17.3642Z" fill="#FF611C"/>
<path d="M26.4855 30.2095V30.9251C26.485 31.5627 26.2313 32.174 25.7803 32.6247C25.3293 33.0754 24.7178 33.3285 24.0802 33.3285H22.0833H21.9315C21.3224 33.2891 20.7511 33.0193 20.3336 32.574C19.9161 32.1286 19.6837 31.5411 19.6836 30.9307V30.2151C21.9004 30.9045 24.2743 30.9045 26.4911 30.2151L26.4855 30.2095Z" fill="#FF9B70"/>
<path d="M23.9458 38.1524L23.8428 37.8826C23.4681 36.8917 23.1084 35.955 23.0429 34.9846C23.0023 34.4186 23.0967 33.851 23.3182 33.3286H22.0819H21.9301C21.7615 33.8949 21.698 34.4873 21.7428 35.0764C21.8196 36.2435 22.2299 37.3244 22.6251 38.3566L22.7263 38.6226C23.1009 39.6304 23.4756 40.702 23.4138 41.7473C23.408 41.8597 23.3955 41.9717 23.3763 42.0826C23.3426 42.0395 23.307 41.9983 23.2714 41.959C22.6026 41.2265 21.3269 40.9361 20.4933 41.6724C20.295 41.8541 20.1419 42.0797 20.0463 42.3311C19.9507 42.5825 19.9152 42.8528 19.9426 43.1204C19.964 43.421 20.0543 43.7125 20.2067 43.9724C20.3591 44.2324 20.5694 44.4536 20.8212 44.6191C21.1099 44.7922 21.4335 44.8988 21.7685 44.9312C22.1036 44.9636 22.4416 44.921 22.7581 44.8064C22.7094 46.1889 22.273 47.5415 21.8215 48.9652C21.5099 49.8723 21.2467 50.7952 21.0328 51.7302L22.316 51.9999C22.5189 51.113 22.769 50.2375 23.0653 49.3773C23.588 47.7588 24.1294 46.0859 24.0769 44.3194C24.0769 44.162 24.0619 44.0103 24.0451 43.866C24.4642 43.2665 24.7016 42.5588 24.7288 41.8278C24.7925 40.5165 24.3766 39.2933 23.9458 38.1524ZM21.5105 43.5138C21.4309 43.4554 21.365 43.3801 21.3178 43.2933C21.2705 43.2065 21.2429 43.1104 21.237 43.0118C21.2229 42.9528 21.2233 42.8912 21.2382 42.8324C21.2531 42.7736 21.282 42.7192 21.3226 42.6741C21.3631 42.6289 21.414 42.5943 21.4709 42.5732C21.5278 42.5521 21.589 42.5451 21.6491 42.5528C21.7695 42.5555 21.8881 42.582 21.9981 42.6309C22.108 42.6798 22.2072 42.75 22.2898 42.8376C22.4384 43.0088 22.5483 43.2101 22.612 43.4277C22.455 43.5416 22.2696 43.6099 22.0762 43.6251C21.8828 43.6403 21.689 43.6018 21.5161 43.5138H21.5105Z" fill="#02B49A"/>
<g style="mix-blend-mode:multiply">
<path d="M45.249 25.6162C45.249 30.2583 42.3791 34.1754 38.4546 35.3912C36.769 35.9144 34.9644 35.9144 33.2788 35.3912C29.3561 34.1735 26.4844 30.2583 26.4844 25.6144C26.4844 19.9944 30.6843 15.4479 35.8657 15.4479C41.0472 15.4479 45.249 20.0019 45.249 25.6162Z" fill="#FBC80B"/>
</g>
<path d="M38.4548 35.3893C38.4478 35.9807 38.2228 36.5486 37.8228 36.9843C37.4228 37.4199 36.876 37.6924 36.2874 37.7497C36.2078 37.7587 36.1277 37.7631 36.0476 37.7628H35.6729C35.4374 37.7633 35.2032 37.7285 34.978 37.6597C34.489 37.513 34.0596 37.214 33.7523 36.8063C33.445 36.3986 33.2759 35.9035 33.2695 35.393C34.9551 35.9163 36.7598 35.9163 38.4454 35.393L38.4548 35.3893Z" fill="#FDDC67"/>
<path d="M37.8186 44.104C37.7399 45.0687 37.3259 45.9248 36.8707 46.7884L36.8332 46.8596C36.4586 47.5808 36.0951 48.2646 35.9921 48.9839C35.9059 49.5759 36.0446 50.3346 36.5541 50.698L35.7842 51.7583C34.9431 51.1476 34.5291 50.0124 34.7033 48.7985C34.8382 47.8618 35.2653 47.0376 35.683 46.2489L35.7205 46.1777C36.1232 45.4097 36.4698 44.7165 36.5204 43.9972C36.5972 43.0605 36.2057 42.137 35.7898 41.1554C35.683 40.9025 35.5762 40.6514 35.477 40.406C35.1096 39.5418 34.9449 38.6049 34.9955 37.6672C35.2208 37.736 35.455 37.7708 35.6905 37.7703H36.0652C36.1453 37.7706 36.2254 37.7663 36.3049 37.7572C36.2319 38.5327 36.4923 39.3832 36.704 39.9283C36.7995 40.17 36.9007 40.4098 37.0037 40.6514C37.4477 41.7305 37.9216 42.8526 37.8186 44.104Z" fill="#02B49A"/>
</svg>
