<svg width="56" height="56" viewBox="0 0 56 56" fill="none" xmlns="http://www.w3.org/2000/svg">
<rect width="56" height="56" fill="white"/>
<path d="M42.1857 36.1042C42.1668 36.1247 42.1442 36.1414 42.119 36.1535H42.1103L34.2933 40.2265L31.0786 41.9027L23.5922 45.819L21.004 47.1675L20.569 47.3937L14.4789 50.5662L12.4489 51.6218C12.2901 51.7048 12.1247 51.7746 11.9544 51.8306C11.3736 52.0234 10.7509 52.0522 10.1548 51.9138C9.55866 51.7754 9.01231 51.4751 8.5759 51.0461L8.30185 50.775C7.90259 50.3841 7.60846 49.8988 7.44674 49.364C7.28503 48.8291 7.26095 48.2622 7.37674 47.7156C7.41083 47.555 7.45638 47.397 7.51304 47.2429V47.2342L7.529 47.1878L8.32215 45.0578L8.48891 44.6083L10.6741 38.7301L10.8582 38.2328L11.8181 35.649L12.0008 35.156L14.7341 27.7887L14.9125 27.3102L16.058 24.2261L16.2668 23.6635L19.1523 15.8859V15.8685V15.8511V15.8439C19.1582 15.8283 19.167 15.814 19.1784 15.8018C19.2059 15.7699 19.2842 15.7105 19.5032 15.7003C19.8173 15.6994 20.1295 15.7484 20.4283 15.8453C21.2229 16.0744 22.2785 16.5631 23.527 17.288C26.0166 18.738 29.1893 21.0696 32.4445 23.9579C35.6998 26.8462 38.4056 29.7084 40.147 32.0023C41.017 33.1521 41.6333 34.1366 41.9595 34.9022C42.0926 35.1857 42.1793 35.4888 42.2162 35.7997C42.2425 35.9016 42.2317 36.0096 42.1857 36.1042Z" fill="#FF611C"/>
<path d="M42.1826 36.104C42.1637 36.1245 42.1411 36.1413 42.1159 36.1533H42.1072L42.0014 36.2084C41.8838 36.2222 41.7651 36.2222 41.6476 36.2084C41.2922 36.1608 40.9433 36.0728 40.6079 35.946C39.7727 35.656 38.7229 35.1253 37.5034 34.3945C35.0761 32.9344 32.063 30.6942 28.9759 27.9625C25.8888 25.2308 23.2962 22.5295 21.5562 20.2994C20.8265 19.4002 20.1842 18.4336 19.6378 17.4125C19.4703 17.0944 19.3394 16.7583 19.2478 16.4106C19.1936 16.2359 19.1846 16.0503 19.2217 15.8712V15.864V15.8567C19.2279 15.8413 19.2367 15.8271 19.2478 15.8147C19.2753 15.7828 19.3536 15.7233 19.5726 15.7117C19.7139 15.7069 19.8554 15.7171 19.9945 15.7422L20.067 15.7552C20.1801 15.7784 20.3034 15.8074 20.4382 15.8466C21.2329 16.0757 22.2885 16.5643 23.5369 17.2893C26.0266 18.7393 29.1992 21.0708 32.4545 23.9591C35.7098 26.8475 38.4155 29.7097 40.157 32.0035C41.027 33.1534 41.6432 34.1379 41.9695 34.9035C42.1026 35.187 42.1892 35.49 42.2261 35.801C42.248 35.904 42.2326 36.0114 42.1826 36.104Z" fill="url(#paint0_linear_98_1934)"/>
<path d="M34.2883 40.2399L31.0737 41.916C28.8987 41.1911 25.6782 39.5599 21.5108 35.9712C17.5494 32.5565 15.6455 29.7726 14.7422 27.7919L14.9205 27.3134L16.066 24.2294C16.7461 25.9954 18.6268 29.181 23.8164 33.6541C28.903 38.033 32.3598 39.6483 34.2883 40.2399Z" fill="#FDDC67"/>
<path d="M23.592 45.8196L21.0038 47.1681L20.5688 47.3943C18.7432 46.765 16.7987 45.7051 14.8267 44.0086C12.7416 42.2121 11.4467 40.4171 10.6797 38.7351L10.8638 38.2378L11.8237 35.6539C12.6938 37.5287 14.2163 39.6718 16.848 41.9395C19.229 43.9825 21.5185 45.1686 23.592 45.8196Z" fill="#FDDC67"/>
<path d="M14.4825 50.5616L12.4525 51.6171C12.2937 51.7001 12.1283 51.77 11.958 51.8259C11.0399 51.4913 10.1907 50.9916 9.45242 50.3513C8.58788 49.6223 7.88216 48.7236 7.37891 47.7109C7.41299 47.5503 7.45854 47.3923 7.51521 47.2382V47.2295L7.53116 47.1831L8.32141 45.0575C9.03535 46.419 10.0087 47.6278 11.1866 48.6157C12.1545 49.4639 13.2723 50.1239 14.4825 50.5616Z" fill="#FDDC67"/>
<path d="M48.0898 39.323L50.1909 37.931L51.4191 39.9131L49.3166 41.3356L48.0898 39.323Z" fill="#FBC80B"/>
<path d="M36.5781 44.089L38.3631 42.7086L39.9335 44.4355L38.1383 45.9739L36.5781 44.089Z" fill="#02B49A"/>
<path d="M14.1562 10.8084L15.8455 8.96545L17.6522 10.6387L15.8615 12.4816L14.1562 10.8084Z" fill="#02B49A"/>
<path d="M27.3984 5.83566L29.24 4L31.0264 5.83566L29.166 7.66696L27.3984 5.83566Z" fill="#FF611C"/>
<path d="M33.1914 11.5998L35.1156 9.79309L36.728 11.5577L34.872 13.3847L33.1914 11.5998Z" fill="#FBC80B"/>
<path d="M36.5597 23.9668C36.5597 23.9668 36.2697 20.1041 36.2494 19.4531C36.2291 18.802 36.2494 16.7286 37.9068 16.6691C39.5642 16.6097 41.9929 19.7474 44.0708 19.8083C44.2723 19.8083 44.8813 19.8895 45.0234 19.6735C45.1365 19.4951 44.9104 19.2776 44.8089 19.1544C44.1389 18.3496 43.4864 17.5275 43.1993 16.5009C42.9775 15.7064 42.9195 14.616 43.7996 14.1911C44.8146 13.7185 45.9515 14.0636 47.7466 14.4289C49.5417 14.7943 50.0477 11.487 48.8036 9.99785C48.0931 9.23807 49.3445 8.49858 49.3445 8.49858C49.3445 8.49858 49.8491 8.10419 50.2145 8.60733C51.0642 9.78035 51.8791 11.181 51.7617 12.6933C51.7165 13.1414 51.5832 13.5761 51.3694 13.9725C51.1557 14.3689 50.8657 14.7192 50.5161 15.0031C49.6765 15.6861 48.7761 15.6165 47.7611 15.4845C46.8792 15.3471 46.0196 15.0931 45.2047 14.7291C44.5565 14.4608 44.4594 15.1104 44.6145 15.6179C44.9698 16.7547 46.1588 17.3941 46.472 18.5309C46.7127 19.4081 46.314 20.2709 45.4237 20.542C45.0938 20.6347 44.7497 20.6657 44.4086 20.6333C42.0799 20.4564 40.1949 18.5497 39.612 18.0771C39.0291 17.6044 38.4969 17.5928 38.7739 19.8736C38.8885 20.8378 39.0219 21.8049 39.0639 22.7735C39.0842 23.2737 39.2089 24.3685 38.5506 24.5135C38.046 24.6178 36.6192 24.7353 36.5597 23.9668Z" fill="#02B49A"/>
<path d="M8.29297 7.95333C8.40722 7.8561 8.48327 7.72148 8.50758 7.57344C8.55543 7.0877 7.82607 7.1022 7.52592 7.18195C7.1769 7.28324 6.84254 7.42946 6.53121 7.61694C5.71779 8.05747 5.03771 8.70849 4.56209 9.50189C3.98209 10.5676 4.17639 11.7464 4.97245 12.6425C5.5046 13.2385 6.2673 13.5879 7.03291 13.759C7.42001 13.8471 7.81627 13.8884 8.21322 13.8822C8.42347 13.8822 9.06002 13.7372 9.18763 13.9533C9.38773 14.2926 8.24513 14.6638 8.03632 14.7305C6.84441 15.1408 4.21699 16.3254 5.45965 17.9595C5.8729 18.5018 6.63416 18.5888 7.26781 18.6106C8.57282 18.6555 9.97789 18.4467 11.28 18.6816C11.6251 18.7454 12.0384 18.8846 12.1979 19.2384C12.4531 19.7966 12.0529 20.41 11.7846 20.8841C11.4665 21.4639 11.111 22.0224 10.7203 22.5559C10.4303 22.9358 10.0098 23.2664 9.76328 23.6681C9.55013 23.9986 9.81983 24.277 10.1055 24.4264C10.5492 24.6569 11.0625 24.2335 11.3655 23.9479C12.3806 22.9909 13.4115 21.3264 13.3782 19.888C13.3289 17.8116 10.6594 17.8087 9.17313 17.887C8.77873 17.9088 5.72065 18.0987 6.3079 17.1171C6.57181 16.6749 7.10541 16.3588 7.52301 16.0847C8.05517 15.7382 8.60182 15.4293 9.15573 15.1234C9.42148 14.9933 9.67822 14.8456 9.92423 14.6812C10.381 14.3346 10.8624 13.7735 10.9392 13.1906C11.0755 12.193 9.88218 11.8726 9.12673 11.7406C8.22192 11.5797 6.97056 11.7798 6.23685 11.1273C6.17029 11.0661 6.11094 10.9975 6.05996 10.9229C5.5945 10.2617 6.537 9.37429 6.99521 8.9857C7.30261 8.72616 7.63321 8.49416 7.94787 8.24187C8.06785 8.15176 8.18304 8.05545 8.29297 7.95333Z" fill="#FBC80B"/>
<path d="M42.2377 36.1127C42.2195 36.1349 42.1974 36.1536 42.1725 36.1678C42.1186 36.1914 42.0613 36.2061 42.0028 36.2113C41.8853 36.2251 41.7666 36.2251 41.649 36.2113C41.2936 36.1637 40.9448 36.0757 40.6094 35.9489C39.7742 35.6589 38.7243 35.1282 37.5049 34.3974C35.0776 32.9373 32.0644 30.6971 28.9774 27.9654C25.8903 25.2337 23.2962 22.5295 21.5562 20.2994C20.8265 19.4002 20.1842 18.4336 19.6378 17.4125C19.4703 17.0944 19.3394 16.7583 19.2478 16.4106C19.1936 16.2359 19.1846 16.0503 19.2217 15.8712V15.864V15.8567C19.2279 15.8413 19.2367 15.8271 19.2478 15.8147C19.2753 15.7828 19.3536 15.7233 19.5726 15.7117C19.7139 15.7069 19.8554 15.7171 19.9945 15.7422L20.067 15.7552C20.2138 15.7817 20.359 15.816 20.502 15.8582C21.2967 16.0873 22.3523 16.5832 23.6007 17.3081C26.0904 18.7581 29.2558 21.0882 32.5183 23.978C35.7808 26.8678 38.4793 29.7256 40.2193 32.0151C41.0893 33.1635 41.7056 34.148 42.0304 34.9078C42.1636 35.1909 42.2507 35.4934 42.2885 35.8039C42.316 35.9967 42.2667 36.0808 42.2377 36.1127Z" fill="#FF9B70"/>
<g style="mix-blend-mode:multiply">
<path d="M32.4481 29.4942C33.2727 29.0325 34.1267 28.6252 35.0044 28.2748C36.668 27.6031 38.3806 27.0602 40.1273 26.6508C42.6197 26.0659 45.158 25.6972 47.7138 25.5489C48.4663 25.5025 49.2174 25.4662 49.9671 25.4126C50.7762 25.3531 51.0735 25.7953 51.1431 26.5363C51.2054 27.1801 51.1431 27.9442 50.3238 27.9442C49.2711 27.9442 39.6923 28.195 34.5868 31.1428C34.5243 31.1791 34.4544 31.2009 34.3824 31.2066C34.3109 31.2125 34.239 31.2021 34.1721 31.1762C33.769 31.0181 32.9063 30.6237 32.3698 29.9538C32.3419 29.919 32.3221 29.8784 32.3117 29.8349C32.3023 29.7915 32.3023 29.7465 32.3117 29.703C32.3207 29.6591 32.3379 29.6172 32.3625 29.5798C32.3854 29.5461 32.4144 29.5171 32.4481 29.4942Z" fill="#FBC80B"/>
</g>
<g style="mix-blend-mode:multiply">
<path d="M21.3974 10.6783C21.2165 10.6068 21.0669 10.4731 20.9755 10.3013C20.8842 10.1288 20.8565 9.92965 20.8972 9.73874C20.961 9.35576 21.1407 9.00153 21.4119 8.72376C21.7889 8.35547 22.2341 8.44102 22.7068 8.54541C23.6537 8.76291 27.5788 10.1839 27.428 20.4264C27.428 20.8455 27.4135 21.2631 27.4034 21.6807C27.3889 22.3225 27.3715 22.9658 27.3512 23.6106C27.3512 23.8179 27.3512 24.0296 27.341 24.2369C27.341 24.3645 27.2917 24.5066 27.1337 24.4979C26.9486 24.4879 26.7647 24.4617 26.5841 24.4196C26.2238 24.3496 25.8889 24.1844 25.6141 23.9411C25.4878 23.8221 25.3902 23.676 25.3286 23.5137C25.2671 23.3514 25.2432 23.1773 25.2588 23.0045C25.2835 22.7145 25.2994 22.4332 25.3168 22.1475C25.3705 21.1993 25.385 20.2466 25.3574 19.3056C25.3337 18.1255 25.2188 16.949 25.0138 15.7865C24.8079 14.6918 24.5092 13.584 23.948 12.6155C23.6773 12.1287 23.316 11.698 22.8837 11.3467C22.4487 11.006 21.9267 10.8958 21.4235 10.6986L21.3974 10.6783Z" fill="#FBC80B"/>
</g>
<defs>
<linearGradient id="paint0_linear_98_1934" x1="26.1194" y1="18.7335" x2="37.8002" y2="37.0744" gradientUnits="userSpaceOnUse">
<stop stop-color="#F3BD3D"/>
<stop offset="0.5" stop-color="#EBBB40"/>
<stop offset="1" stop-color="#FFFF65"/>
</linearGradient>
</defs>
</svg>
