<svg width="56" height="56" viewBox="0 0 56 56" fill="none" xmlns="http://www.w3.org/2000/svg">
<rect width="56" height="56" fill="white"/>
<path d="M49.5705 8.77204L46.0008 14.8055C45.9045 14.9683 45.7768 15.1102 45.625 15.2231C45.4733 15.336 45.3006 15.4175 45.117 15.4629C44.9334 15.5083 44.7426 15.5166 44.5558 15.4875C44.3689 15.4584 44.1897 15.3923 44.0287 15.2932L39.7763 12.6734C39.4579 12.4778 39.2291 12.1649 39.1394 11.8022C39.0496 11.4394 39.106 11.0559 39.2964 10.7344L42.8661 4.69902C42.9624 4.53625 43.0901 4.39428 43.2419 4.28141C43.3936 4.16854 43.5663 4.08704 43.7499 4.04164C43.9335 3.99624 44.1243 3.98786 44.3111 4.017C44.498 4.04614 44.6772 4.11221 44.8382 4.21135L49.0907 6.82526C49.4112 7.02092 49.6414 7.33527 49.7313 7.69988C49.8212 8.06449 49.7634 8.44983 49.5705 8.77204Z" fill="#FF611C"/>
<path d="M40.7729 36.1342C40.1963 37.1271 39.3819 37.961 38.4029 38.5609C38.1351 38.7248 37.9272 38.9706 37.8099 39.2618C37.6926 39.553 37.6721 39.8742 37.7513 40.178C38.4243 42.628 38.2136 45.1698 36.9555 47.3487C34.1212 52.2566 27.0403 53.4757 21.1415 50.0679C15.2427 46.6601 12.7537 39.9244 15.59 35.0126C16.8442 32.8376 18.9314 31.3882 21.3815 30.7445C21.6841 30.6629 21.9524 30.4861 22.1466 30.2402C22.3409 29.9942 22.4509 29.6923 22.4602 29.379C22.4874 28.2254 22.8025 27.0968 23.377 26.096C25.6417 22.1713 31.3746 21.2388 36.1752 24.0108C40.9758 26.7827 43.0376 32.2095 40.7729 36.1342Z" fill="#FF611C"/>
<path d="M30.0697 45.6847C29.9691 45.8594 29.835 46.0126 29.675 46.1355C29.5151 46.2583 29.3325 46.3484 29.1378 46.4006C28.943 46.4528 28.7398 46.4661 28.5399 46.4396C28.34 46.4132 28.1473 46.3475 27.9727 46.2465L21.2703 42.3451C20.9203 42.1416 20.665 41.8079 20.5602 41.4169C20.4553 41.0259 20.5093 40.6092 20.7105 40.2579C20.8111 40.0829 20.9453 39.9295 21.1053 39.8064C21.2654 39.6834 21.4482 39.5932 21.6432 39.541C21.8382 39.4888 22.0416 39.4757 22.2418 39.5023C22.4419 39.5289 22.6348 39.5948 22.8094 39.6961L29.5118 43.5858C29.6863 43.6869 29.8392 43.8214 29.9616 43.9817C30.0841 44.1419 30.1738 44.3247 30.2256 44.5196C30.2775 44.7145 30.2904 44.9178 30.2636 45.1177C30.2368 45.3176 30.1709 45.5103 30.0697 45.6847Z" fill="#FF9B70"/>
<g style="mix-blend-mode:multiply">
<path d="M25.3898 19.5339V28.979C25.3898 31.3589 23.5367 33.3856 21.1588 33.4656C19.9948 33.4866 18.8701 33.0442 18.0322 32.2359C17.1943 31.4277 16.7118 30.3196 16.6909 29.1556C16.6699 27.9915 17.1122 26.8669 17.9205 26.0289C18.7288 25.191 19.8368 24.7085 21.0008 24.6876C21.484 24.6864 21.964 24.7662 22.4209 24.9236V20.5716L15.0084 18.5059V26.2188C15.0084 27.0869 14.751 27.9355 14.2687 28.6572C13.7865 29.379 13.101 29.9416 12.299 30.2738C11.497 30.606 10.6146 30.6929 9.76319 30.5235C8.91182 30.3542 8.12978 29.9362 7.51597 29.3223C6.90216 28.7085 6.48415 27.9265 6.3148 27.0751C6.14545 26.2237 6.23237 25.3412 6.56456 24.5392C6.89675 23.7372 7.4593 23.0518 8.18106 22.5695C8.90282 22.0872 9.75139 21.8298 10.6194 21.8298C11.1027 21.8287 11.5827 21.9085 12.0395 22.0658V16.4615C12.039 16.2431 12.0891 16.0275 12.1859 15.8316C12.2827 15.6357 12.4235 15.465 12.5974 15.3327C12.7713 15.2004 12.9734 15.1102 13.188 15.0691C13.4025 15.0281 13.6237 15.0373 13.8341 15.0961L15.0045 15.4218L22.417 17.4876L24.2135 17.9909C24.5514 18.0839 24.8495 18.2853 25.0619 18.564C25.2744 18.8427 25.3896 19.1834 25.3898 19.5339Z" fill="#02B49A"/>
</g>
<path d="M35.3598 8.40149V10.5648L32.6289 9.80207V15.2094C32.631 15.8617 32.4259 16.4979 32.0432 17.0262C31.6605 17.5545 31.1199 17.9477 30.4993 18.149C29.8788 18.3504 29.2104 18.3495 28.5904 18.1465C27.9704 17.9435 27.4309 17.5489 27.0496 17.0195C26.6683 16.4902 26.465 15.8534 26.4688 15.201C26.4727 14.5487 26.6835 13.9144 27.0711 13.3896C27.4586 12.8648 28.0027 12.4766 28.6251 12.2809C29.2474 12.0853 29.9158 12.0923 30.5339 12.3009V8.36638C30.534 8.21322 30.5695 8.06214 30.6376 7.92498C30.7058 7.78782 30.8047 7.66828 30.9268 7.57572C31.0488 7.48316 31.1906 7.42009 31.341 7.39144C31.4915 7.36278 31.6465 7.36932 31.794 7.41054L32.6172 7.63877L35.3598 8.40149Z" fill="#FBC80B"/>
<path d="M41.565 17.8212L30.9554 36.1068C30.9126 36.1806 30.8555 36.2451 30.7873 36.2964C30.7192 36.3477 30.6414 36.3849 30.5587 36.4056C30.4759 36.4263 30.3898 36.4303 30.3055 36.4171C30.2212 36.404 30.1404 36.3741 30.0679 36.3292L28.7024 35.4924C28.5608 35.405 28.4587 35.2659 28.418 35.1046C28.3772 34.9433 28.4008 34.7724 28.484 34.6282L39.0936 16.3426C39.1364 16.2688 39.1935 16.2043 39.2617 16.153C39.3298 16.1016 39.4076 16.0645 39.4903 16.0438C39.5731 16.023 39.6592 16.0191 39.7435 16.0322C39.8278 16.0454 39.9086 16.0753 39.9811 16.1202L41.3466 16.957C41.4882 17.0444 41.5902 17.1835 41.631 17.3448C41.6718 17.5061 41.6481 17.677 41.565 17.8212Z" fill="#FF9B70"/>
</svg>
