<svg width="56" height="56" viewBox="0 0 56 56" fill="none" xmlns="http://www.w3.org/2000/svg">
<rect width="56" height="56" fill="white"/>
<path d="M46.7673 9.57677C40.778 3.74479 31.0912 3.89133 25.2694 9.8937C22.5306 12.7134 20.9964 16.488 20.9914 20.4189C20.9869 22.2279 20.8937 24.0357 20.6325 25.8254C20.0168 30.0353 18.8819 34.8273 16.8088 36.901L8.80832 44.9003C8.19276 45.5179 7.44869 45.9922 6.62901 46.2896C6.06792 46.4865 5.51806 46.7141 4.98188 46.9712C4.89475 47.0143 4.81912 47.0774 4.76123 47.1555C4.70333 47.2336 4.66483 47.3243 4.64891 47.4201C4.63298 47.516 4.64009 47.6143 4.66964 47.7069C4.6992 47.7995 4.75035 47.8837 4.81887 47.9526L8.68621 51.82C8.75418 51.8883 8.83737 51.9396 8.92896 51.9696C9.02055 51.9996 9.11795 52.0076 9.21319 51.9927C9.30842 51.9779 9.39878 51.9407 9.47689 51.8842C9.55499 51.8277 9.61862 51.7536 9.66256 51.6678C9.92179 51.1287 10.1507 50.5756 10.3481 50.011C10.6458 49.1913 11.1203 48.4473 11.7379 47.8317L19.7379 39.8317C21.811 37.7586 26.603 36.6232 30.8134 36.0081C32.6008 35.7468 34.4053 35.6526 36.2092 35.6486C38.1983 35.6473 40.1676 35.254 42.0046 34.4911C43.8416 33.7282 45.5102 32.6107 46.915 31.2025C52.8946 25.2194 52.8458 15.4951 46.7673 9.57677ZM28.3024 34.6177C26.8961 34.8739 25.5909 34.1224 23.4331 34.9335C22.1779 35.4004 21.7764 35.2743 21.5628 35.0749C21.3657 34.8608 21.2373 34.4592 21.7042 33.204C22.5164 31.0457 21.761 29.7394 22.0212 28.3359C22.1614 27.564 22.5664 27.6271 22.9009 27.8435C24.2816 30.3164 26.3224 32.3569 28.7954 33.7373C29.009 34.0724 29.0731 34.4763 28.3024 34.6177Z" fill="#FBC80B"/>
<path d="M43.1039 14.6522C43.7221 14.6522 44.2233 14.151 44.2233 13.5327C44.2233 12.9144 43.7221 12.4132 43.1039 12.4132C42.4856 12.4132 41.9844 12.9144 41.9844 13.5327C41.9844 14.151 42.4856 14.6522 43.1039 14.6522Z" fill="#FF611C"/>
<path d="M29.2484 28.508C29.8667 28.508 30.3679 28.0068 30.3679 27.3885C30.3679 26.7703 29.8667 26.269 29.2484 26.269C28.6301 26.269 28.1289 26.7703 28.1289 27.3885C28.1289 28.0068 28.6301 28.508 29.2484 28.508Z" fill="#FF611C"/>
<path d="M32.0218 25.7369C32.6401 25.7369 33.1413 25.2357 33.1413 24.6174C33.1413 23.9991 32.6401 23.4979 32.0218 23.4979C31.4036 23.4979 30.9023 23.9991 30.9023 24.6174C30.9023 25.2357 31.4036 25.7369 32.0218 25.7369Z" fill="#FF611C"/>
<path d="M40.3343 17.4234C40.9526 17.4234 41.4538 16.9222 41.4538 16.3039C41.4538 15.6857 40.9526 15.1844 40.3343 15.1844C39.716 15.1844 39.2148 15.6857 39.2148 16.3039C39.2148 16.9222 39.716 17.4234 40.3343 17.4234Z" fill="#FF611C"/>
<path d="M43.1039 20.1945C43.7221 20.1945 44.2233 19.6933 44.2233 19.075C44.2233 18.4568 43.7221 17.9556 43.1039 17.9556C42.4856 17.9556 41.9844 18.4568 41.9844 19.075C41.9844 19.6933 42.4856 20.1945 43.1039 20.1945Z" fill="#FF611C"/>
<path d="M37.6117 14.7022C38.2299 14.7022 38.7312 14.201 38.7312 13.5827C38.7312 12.9645 38.2299 12.4633 37.6117 12.4633C36.9934 12.4633 36.4922 12.9645 36.4922 13.5827C36.4922 14.201 36.9934 14.7022 37.6117 14.7022Z" fill="#FF611C"/>
<path d="M34.7914 28.508C35.4096 28.508 35.9108 28.0068 35.9108 27.3885C35.9108 26.7703 35.4096 26.269 34.7914 26.269C34.1731 26.269 33.6719 26.7703 33.6719 27.3885C33.6719 28.0068 34.1731 28.508 34.7914 28.508Z" fill="#FF611C"/>
<path d="M29.2992 23.0157C29.9174 23.0157 30.4186 22.5145 30.4186 21.8962C30.4186 21.2779 29.9174 20.7767 29.2992 20.7767C28.6809 20.7767 28.1797 21.2779 28.1797 21.8962C28.1797 22.5145 28.6809 23.0157 29.2992 23.0157Z" fill="#FF611C"/>
<path d="M37.5609 20.1945C38.1792 20.1945 38.6804 19.6933 38.6804 19.075C38.6804 18.4568 38.1792 17.9556 37.5609 17.9556C36.9426 17.9556 36.4414 18.4568 36.4414 19.075C36.4414 19.6933 36.9426 20.1945 37.5609 20.1945Z" fill="#FF611C"/>
<path d="M40.3343 22.9658C40.9526 22.9658 41.4538 22.4646 41.4538 21.8463C41.4538 21.228 40.9526 20.7268 40.3343 20.7268C39.716 20.7268 39.2148 21.228 39.2148 21.8463C39.2148 22.4646 39.716 22.9658 40.3343 22.9658Z" fill="#FF611C"/>
<path d="M43.1039 25.7369C43.7221 25.7369 44.2233 25.2357 44.2233 24.6174C44.2233 23.9991 43.7221 23.4979 43.1039 23.4979C42.4856 23.4979 41.9844 23.9991 41.9844 24.6174C41.9844 25.2357 42.4856 25.7369 43.1039 25.7369Z" fill="#FF611C"/>
<path d="M34.8382 17.4733C35.4565 17.4733 35.9577 16.9721 35.9577 16.3539C35.9577 15.7356 35.4565 15.2344 34.8382 15.2344C34.22 15.2344 33.7188 15.7356 33.7188 16.3539C33.7188 16.9721 34.22 17.4733 34.8382 17.4733Z" fill="#FF611C"/>
<path d="M31.9906 14.6221C32.6088 14.6221 33.1101 14.1209 33.1101 13.5027C33.1101 12.8844 32.6088 12.3832 31.9906 12.3832C31.3723 12.3832 30.8711 12.8844 30.8711 13.5027C30.8711 14.1209 31.3723 14.6221 31.9906 14.6221Z" fill="#FF611C"/>
<path d="M34.7914 22.9658C35.4096 22.9658 35.9108 22.4646 35.9108 21.8463C35.9108 21.228 35.4096 20.7268 34.7914 20.7268C34.1731 20.7268 33.6719 21.228 33.6719 21.8463C33.6719 22.4646 34.1731 22.9658 34.7914 22.9658Z" fill="#FF611C"/>
<path d="M37.5609 25.7369C38.1792 25.7369 38.6804 25.2357 38.6804 24.6174C38.6804 23.9991 38.1792 23.4979 37.5609 23.4979C36.9426 23.4979 36.4414 23.9991 36.4414 24.6174C36.4414 25.2357 36.9426 25.7369 37.5609 25.7369Z" fill="#FF611C"/>
<path d="M40.3343 28.508C40.9526 28.508 41.4538 28.0068 41.4538 27.3885C41.4538 26.7703 40.9526 26.269 40.3343 26.269C39.716 26.269 39.2148 26.7703 39.2148 27.3885C39.2148 28.0068 39.716 28.508 40.3343 28.508Z" fill="#FF611C"/>
<path d="M32.0687 20.2446C32.687 20.2446 33.1882 19.7434 33.1882 19.1251C33.1882 18.5068 32.687 18.0056 32.0687 18.0056C31.4504 18.0056 30.9492 18.5068 30.9492 19.1251C30.9492 19.7434 31.4504 20.2446 32.0687 20.2446Z" fill="#FF611C"/>
<path d="M29.2171 17.3934C29.8354 17.3934 30.3366 16.8922 30.3366 16.2739C30.3366 15.6556 29.8354 15.1544 29.2171 15.1544C28.5989 15.1544 28.0977 15.6556 28.0977 16.2739C28.0977 16.8922 28.5989 17.3934 29.2171 17.3934Z" fill="#FF611C"/>
<g style="mix-blend-mode:multiply">
<path d="M27.5598 14.0496C26.5911 14.9891 25.3274 15.5649 23.9828 15.6793C22.6382 15.7937 21.2954 15.4397 20.1819 14.6773C19.0684 13.9149 18.2527 12.791 17.873 11.4961C17.4934 10.2011 17.573 8.81473 18.0986 7.5718C18.6242 6.32888 19.5633 5.30586 20.7568 4.6761C21.9503 4.04635 23.3248 3.84857 24.6475 4.11629C25.9701 4.38401 27.1595 5.10076 28.0142 6.14509C28.8689 7.18942 29.3362 8.49711 29.337 9.84658C29.3384 10.6306 29.1817 11.4069 28.8764 12.1291C28.571 12.8512 28.1233 13.5044 27.5598 14.0496Z" fill="#02B49A"/>
</g>
</svg>
