<svg width="56" height="56" viewBox="0 0 56 56" fill="none" xmlns="http://www.w3.org/2000/svg">
<rect width="56" height="56" fill="white"/>
<path d="M43.7455 19.1142C43.7684 19.2097 43.7894 19.3051 43.8085 19.4006C46.0994 29.9006 33.4304 43.9744 33.4304 43.9744C33.4304 43.9744 15.6753 37.3785 12.8383 27.014C12.8116 26.9205 12.7868 26.8231 12.7639 26.7315C12.5031 25.7107 12.4471 24.6485 12.5991 23.606C12.7512 22.5635 13.1082 21.5614 13.6497 20.6577C14.1912 19.754 14.9063 18.9665 15.7539 18.3407C16.6014 17.7149 17.5645 17.2631 18.5876 17.0116C19.6107 16.7601 20.6734 16.7137 21.7145 16.8752C22.7556 17.0366 23.7544 17.4027 24.6533 17.9523C25.5521 18.502 26.3331 19.2242 26.9512 20.0773C27.5694 20.9304 28.0124 21.8976 28.2547 22.9229C27.9939 21.9021 27.9379 20.8398 28.0899 19.7974C28.242 18.7549 28.5991 17.7528 29.1405 16.8491C29.682 15.9454 30.3971 15.1579 31.2447 14.532C32.0922 13.9062 33.0553 13.4545 34.0784 13.203C35.1015 12.9514 36.1642 12.9051 37.2053 13.0665C38.2464 13.228 39.2452 13.5941 40.1441 14.1437C41.0429 14.6933 41.8239 15.4156 42.4421 16.2687C43.0602 17.1218 43.5032 18.0889 43.7455 19.1142Z" fill="#FBC80B"/>
<g style="mix-blend-mode:multiply">
<path d="M25.4093 30.8417C25.3921 30.9124 25.3768 30.983 25.3616 31.0536C23.6643 38.8274 33.0478 49.253 33.0478 49.253C33.0478 49.253 46.1961 44.3676 48.298 36.6931C48.3171 36.6244 48.3362 36.5518 48.3534 36.4831C48.5387 35.7298 48.5738 34.9475 48.4567 34.1807C48.3396 33.4139 48.0726 32.6776 47.671 32.014C47.2693 31.3504 46.7409 30.7723 46.1159 30.3129C45.4909 29.8535 44.7815 29.5217 44.0282 29.3364C43.275 29.1511 42.4926 29.116 41.7257 29.2331C40.9589 29.3502 40.2227 29.6172 39.559 30.0188C38.8954 30.4204 38.3173 30.9488 37.8579 31.5738C37.3984 32.1988 37.0666 32.9082 36.8813 33.6615C37.0724 32.9062 37.1121 32.1206 36.9983 31.35C36.8845 30.5793 36.6193 29.8388 36.2181 29.171C35.8169 28.5032 35.2876 27.9214 34.6605 27.4591C34.0335 26.9967 33.3213 26.663 32.5647 26.477C31.8082 26.2911 31.0224 26.2566 30.2525 26.3756C29.4825 26.4946 28.7438 26.7647 28.0787 27.1704C27.4136 27.5761 26.8354 28.1093 26.3772 28.7394C25.9191 29.3695 25.5901 30.084 25.4093 30.8417Z" fill="#FF611C"/>
</g>
<path d="M51.0972 22.3072C50.9785 22.3973 50.8432 22.4631 50.6991 22.501C50.5549 22.5388 50.4048 22.5479 50.2571 22.5276L47.2131 22.109C46.9148 22.0679 46.6451 21.9101 46.4632 21.6702C46.2813 21.4303 46.2021 21.128 46.2432 20.8297C46.2842 20.5315 46.442 20.2617 46.6819 20.0798C46.9219 19.8979 47.2242 19.8188 47.5225 19.8598L50.5664 20.2785C50.7889 20.309 50.9973 20.4048 51.1653 20.5537C51.3333 20.7027 51.4532 20.8982 51.5101 21.1154C51.5669 21.3326 51.5581 21.5618 51.4846 21.7739C51.4111 21.9861 51.2762 22.1717 51.0972 22.3072Z" fill="#02B49A"/>
<path d="M4.9028 23.192C5.0215 23.1019 5.15675 23.036 5.30091 22.9982C5.44506 22.9604 5.59525 22.9513 5.74291 22.9715L8.78694 23.3902C9.0852 23.4312 9.35493 23.589 9.53682 23.829C9.71872 24.0689 9.79788 24.3712 9.75685 24.6694C9.71582 24.9677 9.55798 25.2374 9.31806 25.4193C9.07815 25.6012 8.77578 25.6804 8.47752 25.6393L5.43355 25.2206C5.2111 25.1902 5.00268 25.0944 4.8347 24.9454C4.66672 24.7964 4.54676 24.601 4.48993 24.3838C4.4331 24.1665 4.44194 23.9374 4.51544 23.7252C4.58894 23.5131 4.72378 23.3275 4.9028 23.192Z" fill="#02B49A"/>
<path d="M50.4278 13.3921C50.3921 13.5367 50.3282 13.6729 50.2398 13.7929C50.1514 13.9129 50.0403 14.0143 49.9127 14.0914L47.2813 15.6779C47.0235 15.8334 46.7144 15.88 46.4222 15.8076C46.13 15.7352 45.8784 15.5497 45.723 15.2919C45.5675 15.0341 45.5209 14.7251 45.5933 14.4328C45.6656 14.1406 45.8512 13.8891 46.109 13.7336L48.7403 12.1471C48.9326 12.0311 49.1549 11.9747 49.3792 11.9851C49.6035 11.9954 49.8196 12.0722 50.0003 12.2055C50.181 12.3388 50.318 12.5226 50.3941 12.7338C50.4702 12.9451 50.4819 13.1742 50.4278 13.3921Z" fill="#02B49A"/>
<path d="M5.82613 31.6841C5.86185 31.5394 5.92572 31.4032 6.0141 31.2832C6.10249 31.1632 6.21365 31.0618 6.34124 30.9848L8.97261 29.3983C9.23044 29.2428 9.53946 29.1962 9.8317 29.2686C10.1239 29.341 10.3755 29.5264 10.5309 29.7843C10.6864 30.0421 10.733 30.3511 10.6607 30.6434C10.5883 30.9356 10.4027 31.1871 10.1449 31.3426L7.51356 32.929C7.32135 33.0451 7.09902 33.1015 6.87473 33.0911C6.65044 33.0807 6.4343 33.004 6.25363 32.8707C6.07295 32.7374 5.93586 32.5536 5.85976 32.3423C5.78366 32.1311 5.77197 31.902 5.82613 31.6841Z" fill="#02B49A"/>
<path d="M44.8126 7.83355C44.8561 7.97612 44.871 8.1258 44.8565 8.27413C44.8421 8.42246 44.7986 8.56648 44.7284 8.69798L43.281 11.4083C43.1392 11.6739 42.8977 11.8722 42.6096 11.9597C42.3216 12.0472 42.0105 12.0168 41.7449 11.8749C41.4794 11.7331 41.281 11.4916 41.1935 11.2035C41.106 10.9155 41.1365 10.6044 41.2783 10.3388L42.7257 7.62857C42.8313 7.43047 42.9934 7.26814 43.1914 7.16218C43.3893 7.05622 43.6142 7.01142 43.8377 7.03337C44.0611 7.05531 44.2731 7.143 44.4466 7.28545C44.6202 7.42789 44.7476 7.61868 44.8126 7.83355Z" fill="#02B49A"/>
<path d="M11.1834 37.6656C11.14 37.523 11.1251 37.3733 11.1396 37.225C11.154 37.0767 11.1975 36.9327 11.2677 36.8012L12.7151 34.0908C12.8569 33.8252 13.0984 33.6269 13.3865 33.5394C13.6745 33.4519 13.9856 33.4824 14.2511 33.6242C14.5167 33.766 14.7151 34.0075 14.8026 34.2956C14.8901 34.5837 14.8596 34.8947 14.7178 35.1603L13.2704 37.8706C13.1647 38.0687 13.0027 38.231 12.8047 38.337C12.6068 38.4429 12.3818 38.4877 12.1584 38.4658C11.9349 38.4438 11.723 38.3561 11.5495 38.2137C11.3759 38.0713 11.2485 37.8805 11.1834 37.6656Z" fill="#02B49A"/>
</svg>
