<svg width="56" height="56" viewBox="0 0 56 56" fill="none" xmlns="http://www.w3.org/2000/svg">
<rect width="56" height="56" fill="white"/>
<path d="M38.3522 35.5305C41.5217 35.5305 44.0911 32.9611 44.0911 29.7916C44.0911 26.6221 41.5217 24.0527 38.3522 24.0527C35.1827 24.0527 32.6133 26.6221 32.6133 29.7916C32.6133 32.9611 35.1827 35.5305 38.3522 35.5305Z" fill="#FBC80B"/>
<path d="M51.4382 50.1805C51.4383 50.7892 51.396 51.3972 51.3116 52H25.4005C25.1594 50.2264 25.2848 48.4221 25.769 46.6989C26.2532 44.9757 27.0859 43.3702 28.2155 41.9817C29.3451 40.5932 30.7477 39.4513 32.3364 38.6267C33.9251 37.8021 35.6661 37.3122 37.4517 37.1874C39.2373 37.0627 41.0295 37.3057 42.7174 37.9015C44.4054 38.4972 45.9531 39.433 47.2648 40.6509C48.5765 41.8688 49.6243 43.343 50.3434 44.9821C51.0625 46.6213 51.4376 48.3906 51.4454 50.1805H51.4382Z" fill="#FBC80B"/>
<path d="M17.6217 35.5305C20.7913 35.5305 23.3607 32.9611 23.3607 29.7916C23.3607 26.6221 20.7913 24.0527 17.6217 24.0527C14.4522 24.0527 11.8828 26.6221 11.8828 29.7916C11.8828 32.9611 14.4522 35.5305 17.6217 35.5305Z" fill="#FF611C"/>
<g style="mix-blend-mode:multiply">
<path d="M30.7077 50.1805C30.7079 50.7892 30.6655 51.3972 30.5811 52H4.67003C4.4289 50.2264 4.55432 48.4221 5.03852 46.6989C5.52272 44.9757 6.35539 43.3702 7.48502 41.9817C8.61466 40.5932 10.0172 39.4513 11.6059 38.6267C13.1946 37.8021 14.9356 37.3122 16.7212 37.1874C18.5068 37.0627 20.2991 37.3057 21.987 37.9015C23.6749 38.4972 25.2226 39.433 26.5343 40.6509C27.846 41.8688 28.8939 43.343 29.613 44.9821C30.3321 46.6213 30.7071 48.3906 30.715 50.1805H30.7077Z" fill="#FF611C"/>
</g>
<path d="M33.8038 10.9037C33.8038 13.9784 31.0184 16.5684 27.1641 17.4691C26.1879 17.6947 25.189 17.8076 24.187 17.8055C23.8145 17.8055 23.4491 17.791 23.0874 17.7603L17.1061 21.2999C16.9847 21.3717 16.8446 21.4057 16.7038 21.3973C16.5629 21.3889 16.4278 21.3386 16.3158 21.2529C16.2038 21.1671 16.12 21.0498 16.0752 20.9161C16.0303 20.7823 16.0265 20.6382 16.0643 20.5022L17.3738 15.7762C15.641 14.5264 14.5703 12.8046 14.5703 10.9037C14.5703 7.091 18.8768 4 24.187 4C28.0866 4 31.4435 5.66578 32.9537 8.06045C33.5019 8.90798 33.7968 9.89434 33.8038 10.9037Z" fill="#FBC80B"/>
<g style="mix-blend-mode:multiply">
<path d="M25.8605 13.7069C25.8605 16.4768 28.3698 18.8101 31.842 19.6215C32.7215 19.8248 33.6214 19.9265 34.524 19.9246C34.8597 19.9246 35.1888 19.9116 35.5147 19.8839L40.9031 23.0726C41.0124 23.1373 41.1387 23.1679 41.2655 23.1604C41.3924 23.1528 41.5141 23.1075 41.615 23.0303C41.7159 22.953 41.7914 22.8473 41.8318 22.7268C41.8722 22.6063 41.8756 22.4765 41.8416 22.354L40.6619 18.0964C42.2229 16.9705 43.1875 15.4194 43.1875 13.7069C43.1875 10.2722 39.3079 7.48755 34.524 7.48755C31.011 7.48755 27.9869 8.98821 26.6263 11.1455C26.1325 11.909 25.8668 12.7976 25.8605 13.7069Z" fill="#02B49A"/>
</g>
</svg>
