<svg width="80" height="56" viewBox="0 0 80 56" fill="none" xmlns="http://www.w3.org/2000/svg">
<rect width="80" height="56" fill="white"/>
<path d="M70.6548 14.4311C70.4562 14.4298 70.2624 14.37 70.0977 14.2591C69.9329 14.1482 69.8046 13.9911 69.7288 13.8076C69.6529 13.624 69.633 13.4222 69.6714 13.2273C69.7098 13.0325 69.8049 12.8533 69.9447 12.7123L71.5586 11.0984C71.6504 10.9964 71.7619 10.9141 71.8866 10.8567C72.0112 10.7993 72.1462 10.7679 72.2834 10.7645C72.4206 10.761 72.557 10.7856 72.6843 10.8367C72.8117 10.8878 72.9273 10.9643 73.024 11.0616C73.1208 11.1589 73.1966 11.2749 73.247 11.4025C73.2974 11.5302 73.3212 11.6667 73.3169 11.8039C73.3127 11.941 73.2806 12.0758 73.2225 12.2001C73.1643 12.3244 73.0815 12.4355 72.9789 12.5267L71.365 14.1406C71.2715 14.2333 71.1607 14.3067 71.0389 14.3566C70.917 14.4064 70.7865 14.4318 70.6548 14.4311Z" fill="#02B49A"/>
<path d="M75.0663 19.9422H72.6454C72.3779 19.9422 72.1214 19.8359 71.9322 19.6467C71.743 19.4576 71.6367 19.201 71.6367 18.9335C71.6367 18.666 71.743 18.4094 71.9322 18.2202C72.1214 18.0311 72.3779 17.9248 72.6454 17.9248H75.0663C75.3339 17.9248 75.5905 18.0311 75.7796 18.2202C75.9688 18.4094 76.0751 18.666 76.0751 18.9335C76.0751 19.201 75.9688 19.4576 75.7796 19.6467C75.5905 19.8359 75.3339 19.9422 75.0663 19.9422Z" fill="#02B49A"/>
<path d="M65.1728 12.4382C64.9052 12.4382 64.6487 12.3319 64.4595 12.1427C64.2703 11.9536 64.1641 11.697 64.1641 11.4295V9.00868C64.1641 8.74116 64.2703 8.48459 64.4595 8.29542C64.6487 8.10626 64.9052 8 65.1728 8C65.4403 8 65.6968 8.10626 65.886 8.29542C66.0752 8.48459 66.1815 8.74116 66.1815 9.00868V11.4295C66.1815 11.697 66.0752 11.9536 65.886 12.1427C65.6968 12.3319 65.4403 12.4382 65.1728 12.4382Z" fill="#02B49A"/>
<path d="M7.86223 29.6739C7.5942 29.6739 7.33666 29.5697 7.14401 29.3834C7.05008 29.2897 6.97554 29.1784 6.92469 29.0558C6.87384 28.9333 6.84766 28.8019 6.84766 28.6692C6.84766 28.5366 6.87384 28.4052 6.92469 28.2826C6.97554 28.1601 7.05008 28.0488 7.14401 27.9551L8.75795 26.3412C8.94736 26.1518 9.20426 26.0454 9.47213 26.0454C9.73999 26.0454 9.9969 26.1518 10.1863 26.3412C10.3757 26.5306 10.4821 26.7875 10.4821 27.0554C10.4821 27.3232 10.3757 27.5801 10.1863 27.7695L8.57237 29.3834C8.47893 29.4761 8.36812 29.5495 8.24626 29.5994C8.1244 29.6492 7.99389 29.6745 7.86223 29.6739Z" fill="#02B49A"/>
<path d="M7.42962 22.5886H5.00871C4.74118 22.5886 4.48459 22.4824 4.29542 22.2932C4.10625 22.1041 4 21.8475 4 21.58C4 21.3124 4.10625 21.0559 4.29542 20.8667C4.48459 20.6776 4.74118 20.5713 5.00871 20.5713H7.42962C7.69715 20.5713 7.95369 20.6776 8.14286 20.8667C8.33203 21.0559 8.43833 21.3124 8.43833 21.58C8.43833 21.8475 8.33203 22.1041 8.14286 22.2932C7.95369 22.4824 7.69715 22.5886 7.42962 22.5886Z" fill="#02B49A"/>
<path d="M14.9345 32.4899C14.667 32.4899 14.4104 32.3837 14.2212 32.1945C14.032 32.0053 13.9258 31.7488 13.9258 31.4813V29.0604C13.9258 28.7929 14.032 28.5364 14.2212 28.3472C14.4104 28.158 14.667 28.0518 14.9345 28.0518C15.202 28.0518 15.4586 28.158 15.6477 28.3472C15.8369 28.5364 15.9432 28.7929 15.9432 29.0604V31.4813C15.9432 31.7488 15.8369 32.0053 15.6477 32.1945C15.4586 32.3837 15.202 32.4899 14.9345 32.4899Z" fill="#02B49A"/>
<path d="M65.5219 20.7896L54.4906 41.8185H26.3597L15.3284 20.7896C15.2139 20.5635 15.1818 20.3044 15.2378 20.0571C15.2937 19.8099 15.4342 19.5898 15.6349 19.435C15.8357 19.2801 16.0841 19.2001 16.3375 19.2088C16.5909 19.2174 16.8333 19.3142 17.023 19.4824L29.1276 30.5778C29.2708 30.7075 29.4411 30.8036 29.6261 30.8591C29.8112 30.9146 30.0062 30.9282 30.1972 30.8988C30.3881 30.8695 30.5701 30.7979 30.7299 30.6893C30.8897 30.5807 31.0232 30.4379 31.1208 30.2712L36.6889 20.8058C36.785 20.6414 36.8252 20.4502 36.8034 20.2611C36.7815 20.0719 36.6989 19.8949 36.5679 19.7568L35.0669 18.1429C34.725 17.7813 34.5233 17.3095 34.4981 16.8125C34.473 16.3155 34.626 15.8258 34.9297 15.4315L39.3035 9.78296C39.434 9.61533 39.6011 9.4797 39.792 9.38641C39.9829 9.29312 40.1925 9.24463 40.405 9.24463C40.6175 9.24463 40.8271 9.29312 41.018 9.38641C41.2089 9.4797 41.376 9.61533 41.5065 9.78296L45.8803 15.4315C46.1856 15.8252 46.3396 16.3152 46.3144 16.8126C46.2893 17.3101 46.0866 17.7821 45.7431 18.1429L44.2422 19.7568C44.1123 19.8956 44.0304 20.0725 44.0086 20.2613C43.9869 20.4502 44.0263 20.641 44.1211 20.8058L49.6892 30.2712C49.7878 30.4367 49.9218 30.5785 50.0816 30.6862C50.2414 30.7939 50.4231 30.8649 50.6135 30.8942C50.804 30.9235 50.9986 30.9104 51.1834 30.8557C51.3681 30.801 51.5386 30.7061 51.6824 30.5778L63.7869 19.4824C63.9684 19.2766 64.2209 19.1468 64.494 19.1191C64.767 19.0914 65.0404 19.1677 65.2596 19.3329C65.4788 19.498 65.6276 19.7398 65.6762 20.0099C65.7248 20.2799 65.6697 20.5584 65.5219 20.7896Z" fill="#FBC80B"/>
<g style="mix-blend-mode:multiply">
<path d="M63.9867 24.0899C66.126 24.0899 67.8602 22.3557 67.8602 20.2166C67.8602 18.0774 66.126 16.3433 63.9867 16.3433C61.8475 16.3433 60.1133 18.0774 60.1133 20.2166C60.1133 22.3557 61.8475 24.0899 63.9867 24.0899Z" fill="#FF611C"/>
</g>
<g style="mix-blend-mode:multiply">
<path d="M16.85 24.0899C18.9893 24.0899 20.7235 22.3557 20.7235 20.2166C20.7235 18.0774 18.9893 16.3433 16.85 16.3433C14.7108 16.3433 12.9766 18.0774 12.9766 20.2166C12.9766 22.3557 14.7108 24.0899 16.85 24.0899Z" fill="#FF611C"/>
</g>
<path d="M54.9255 41.8267H25.9149C24.208 41.8267 22.8242 43.2086 22.8242 44.9132C22.8242 46.6179 24.208 47.9998 25.9149 47.9998H54.9255C56.6324 47.9998 58.0162 46.6179 58.0162 44.9132C58.0162 43.2086 56.6324 41.8267 54.9255 41.8267Z" fill="#FF611C"/>
</svg>
