<svg width="56" height="56" viewBox="0 0 56 56" fill="none" xmlns="http://www.w3.org/2000/svg">
<rect width="56" height="56" fill="white"/>
<path d="M20.8032 49.4138L18.8641 51.3529C18.486 51.7306 17.9734 51.9427 17.4389 51.9427C16.9044 51.9427 16.3919 51.7306 16.0137 51.3529L5.70753 41.037C5.51816 40.8511 5.36758 40.6291 5.26489 40.3844C5.1622 40.1397 5.10938 39.8769 5.10938 39.6115C5.10938 39.3461 5.1622 39.0836 5.26489 38.8389C5.36758 38.5942 5.51816 38.3722 5.70753 38.1863L7.64663 36.2472C8.02476 35.8695 8.53736 35.6573 9.07184 35.6573C9.60632 35.6573 10.1189 35.8695 10.497 36.2472L10.6133 36.3734L20.4931 46.253L20.8129 46.5634C21.1894 46.9428 21.3999 47.456 21.3981 47.9905C21.3963 48.5249 21.1823 49.0369 20.8032 49.4138Z" fill="#FF611C"/>
<path d="M50.2991 41.095L39.983 51.4111C39.7966 51.5979 39.5753 51.746 39.3315 51.8471C39.0878 51.9482 38.8266 52 38.5627 52C38.2989 52 38.0374 51.9482 37.7937 51.8471C37.5499 51.746 37.3287 51.5979 37.1423 51.4111L35.2032 49.472C34.8254 49.0939 34.6133 48.5813 34.6133 48.0468C34.6133 47.5123 34.8254 46.9997 35.2032 46.6216L45.519 36.3055C45.7055 36.1187 45.927 35.9705 46.1707 35.8695C46.4144 35.7684 46.6757 35.7163 46.9395 35.7163C47.2034 35.7163 47.4646 35.7684 47.7083 35.8695C47.9521 35.9705 48.1736 36.1187 48.36 36.3055L50.2991 38.2446C50.6768 38.6227 50.889 39.1353 50.889 39.6698C50.889 40.2043 50.6768 40.7168 50.2991 41.095Z" fill="#FBC80B"/>
<path d="M45.373 36.4122L35.4934 46.2919L30.7812 41.5701C31.4334 41.4154 32.0284 41.0793 32.4974 40.6005L41.0392 32.059L45.373 36.4122Z" fill="#FDDC67"/>
<path d="M42.5233 29.6352C42.5202 30.2491 42.2765 30.8373 41.8447 31.2736L32.4981 40.62C32.0291 41.0987 31.4341 41.4349 30.782 41.5895C30.518 41.651 30.2481 41.6836 29.9772 41.6866H25.1294L20.5049 46.3113L10.625 36.4317L14.9009 32.1558C15.1093 31.5098 15.4437 30.9117 15.8851 30.3959C16.3264 29.8802 16.8659 29.4573 17.472 29.1516C18.078 28.8458 18.7387 28.6634 19.4158 28.615C20.0929 28.5665 20.7728 28.6529 21.4162 28.8692C21.2017 28.6546 21.0314 28.3998 20.9153 28.1195C20.7992 27.8392 20.7395 27.5388 20.7395 27.2354C20.7395 26.932 20.7992 26.6316 20.9153 26.3513C21.0314 26.071 21.2017 25.8162 21.4162 25.6017C21.6307 25.3871 21.8853 25.2169 22.1656 25.1008C22.4459 24.9847 22.7465 24.9249 23.0499 24.9249C23.3534 24.9249 23.6537 24.9847 23.934 25.1008C24.2144 25.2169 24.4689 25.3871 24.6835 25.6017C24.267 25.1592 24.0418 24.5704 24.0569 23.963C24.0719 23.3555 24.3261 22.7784 24.7639 22.3572C25.2018 21.9359 25.7882 21.7044 26.3958 21.7128C27.0034 21.7213 27.5831 21.9689 28.0092 22.4021C28.2241 22.1878 28.3944 21.9333 28.5108 21.653C28.6271 21.3726 28.6869 21.0721 28.6869 20.7686C28.6869 20.4651 28.6271 20.1646 28.5108 19.8843C28.3944 19.6039 28.2241 19.3492 28.0092 19.1349L27.9509 19.0766L31.2667 15.7609C31.5335 15.4855 31.8678 15.2848 32.2363 15.179C32.4564 15.113 32.6851 15.0804 32.9149 15.0822C33.5244 15.0873 34.1074 15.3323 34.5375 15.7642C34.9676 16.1961 35.2103 16.7801 35.2129 17.3896C35.2134 17.694 35.1537 17.9956 35.0372 18.2768C34.9207 18.558 34.7498 18.8133 34.5342 19.0281L33.7294 19.8329C34.1619 19.4019 34.7476 19.16 35.3582 19.16C35.9688 19.16 36.5547 19.4019 36.9872 19.8329C37.2034 20.0453 37.3748 20.299 37.4914 20.5788C37.608 20.8585 37.6672 21.1586 37.6658 21.4617C37.6664 21.7661 37.6067 22.0677 37.4902 22.3489C37.3737 22.6301 37.2028 22.8856 36.9872 23.1004L36.3277 23.7693C36.7728 23.4104 37.3349 23.2286 37.9059 23.259C38.4768 23.2894 39.0164 23.5299 39.4208 23.9341C39.6357 24.1484 39.806 24.4032 39.9224 24.6835C40.0387 24.9638 40.0985 25.2643 40.0985 25.5678C40.0985 25.8713 40.0387 26.1718 39.9224 26.4522C39.806 26.7325 39.6357 26.9872 39.4208 27.2016L38.6063 28.0159C38.9303 27.6956 39.3414 27.4781 39.7884 27.3902C40.2354 27.3024 40.6983 27.3483 41.1194 27.5221C41.5404 27.6959 41.9008 27.9898 42.1557 28.3674C42.4106 28.7449 42.5486 29.1894 42.5524 29.6449L42.5233 29.6352Z" fill="#FF9B70"/>
<path d="M18.1288 32.117C17.6967 32.545 17.1132 32.7852 16.505 32.7852C15.8967 32.7852 15.313 32.545 14.8809 32.117L14.0373 31.2736C13.8224 31.0592 13.652 30.8045 13.5357 30.5242C13.4194 30.2438 13.3594 29.9433 13.3594 29.6398C13.3594 29.3363 13.4194 29.0358 13.5357 28.7555C13.652 28.4752 13.8224 28.2204 14.0373 28.0061C14.4711 27.5774 15.0565 27.3372 15.6663 27.3372C16.2762 27.3372 16.8613 27.5774 17.2951 28.0061L18.1482 28.8594C18.5766 29.2945 18.8153 29.8816 18.8117 30.4922C18.808 31.1028 18.5624 31.687 18.1288 32.117Z" fill="#FDDC67"/>
<path d="M21.3952 28.8496C21.1809 29.0645 20.9261 29.2349 20.6458 29.3512C20.3655 29.4675 20.065 29.5275 19.7615 29.5275C19.458 29.5275 19.1575 29.4675 18.8771 29.3512C18.5968 29.2349 18.3421 29.0645 18.1277 28.8496L17.2746 27.9963L15.6653 26.3966C15.236 25.9593 14.9956 25.3709 14.9961 24.7581C14.9972 24.3026 15.1333 23.8574 15.3869 23.479C15.6405 23.1005 16.0004 22.8057 16.4213 22.6316C16.8423 22.4574 17.3054 22.4116 17.7523 22.5002C18.1992 22.5888 18.6098 22.8075 18.9325 23.1291L21.3952 25.5821C21.6101 25.7965 21.7805 26.0512 21.8968 26.3315C22.0131 26.6119 22.0731 26.9123 22.0731 27.2159C22.0731 27.5194 22.0131 27.8199 21.8968 28.1002C21.7805 28.3805 21.6101 28.6353 21.3952 28.8496Z" fill="#FDDC67"/>
<path d="M24.6633 25.5822C24.449 25.7971 24.1945 25.9677 23.9141 26.084C23.6338 26.2003 23.3333 26.2601 23.0298 26.2601C22.7263 26.2601 22.4256 26.2003 22.1452 26.084C21.8649 25.9677 21.6104 25.7971 21.3961 25.5822L18.9334 23.1292L18.0803 22.2761C17.651 21.8407 17.4102 21.2538 17.4102 20.6424C17.4102 20.0309 17.651 19.444 18.0803 19.0086C18.2946 18.7937 18.5491 18.6234 18.8294 18.507C19.1098 18.3907 19.4103 18.3309 19.7138 18.3309C20.0173 18.3309 20.3178 18.3907 20.5981 18.507C20.8785 18.6234 21.1332 18.7937 21.3475 19.0086L24.6633 22.3149C24.8782 22.5293 25.0488 22.7838 25.1651 23.0641C25.2814 23.3444 25.3412 23.6452 25.3412 23.9487C25.3412 24.2522 25.2814 24.5527 25.1651 24.833C25.0488 25.1134 24.8782 25.3678 24.6633 25.5822Z" fill="#FDDC67"/>
<path d="M27.9911 22.3828C27.7767 22.5977 27.522 22.7681 27.2416 22.8844C26.9613 23.0007 26.6608 23.0605 26.3573 23.0605C26.0538 23.0605 25.7533 23.0007 25.473 22.8844C25.1926 22.7681 24.9379 22.5977 24.7236 22.3828L20.5253 18.1846C20.3105 17.9702 20.1401 17.7155 20.0238 17.4352C19.9074 17.1548 19.8477 16.8544 19.8477 16.5508C19.8477 16.2473 19.9074 15.9468 20.0238 15.6665C20.1401 15.3862 20.3105 15.1314 20.5253 14.9171C20.9494 14.4941 21.5214 14.2527 22.1203 14.2437C22.7191 14.2346 23.298 14.4588 23.7346 14.8688C23.9841 15.9 24.5136 16.8423 25.2647 17.5916C26.0157 18.341 26.9593 18.8682 27.9911 19.1153C28.2059 19.3297 28.3763 19.5844 28.4926 19.8647C28.609 20.1451 28.6688 20.4456 28.6688 20.7491C28.6688 21.0526 28.609 21.3531 28.4926 21.6334C28.3763 21.9137 28.2059 22.1685 27.9911 22.3828Z" fill="#FDDC67"/>
<path d="M31.2467 15.7415L27.931 19.0573L27.9892 19.1155C26.9574 18.8684 26.0139 18.3412 25.2628 17.5918C24.5117 16.8425 23.9822 15.9002 23.7327 14.869C23.6552 14.2582 23.8297 13.812 24.2563 13.7539C25.6234 13.5599 32.0127 15.1209 32.2066 15.1597C31.8416 15.2669 31.5108 15.4675 31.2467 15.7415Z" fill="#FEF1C2"/>
<path d="M27.9582 11.7564C27.5725 11.7564 27.2025 11.6033 26.9297 11.3306C26.657 11.0578 26.5039 10.6878 26.5039 10.3021V5.45432C26.5039 5.06861 26.657 4.69881 26.9297 4.42607C27.2025 4.15333 27.5725 4 27.9582 4C28.3439 4 28.7137 4.15333 28.9865 4.42607C29.2592 4.69881 29.4126 5.06861 29.4126 5.45432V10.3021C29.4126 10.6878 29.2592 11.0578 28.9865 11.3306C28.7137 11.6033 28.3439 11.7564 27.9582 11.7564Z" fill="#02B49A"/>
<path d="M39.4567 11.2716C39.2655 11.2731 39.076 11.236 38.8995 11.1627C38.7229 11.0894 38.5631 10.9815 38.4291 10.8451C38.1591 10.5711 38.0078 10.2019 38.0078 9.81728C38.0078 9.43266 38.1591 9.06367 38.4291 8.78974L42.1035 5.12482C42.2379 4.9888 42.3979 4.88063 42.5743 4.80692C42.7508 4.73322 42.9401 4.69543 43.1313 4.69543C43.3225 4.69543 43.5119 4.73322 43.6883 4.80692C43.8647 4.88063 44.0247 4.9888 44.1591 5.12482C44.4291 5.39874 44.5804 5.76774 44.5804 6.15236C44.5804 6.53698 44.4291 6.90622 44.1591 7.18014L40.4845 10.8451C40.3512 10.9824 40.1913 11.091 40.0146 11.1644C39.8379 11.2377 39.648 11.2742 39.4567 11.2716Z" fill="#02B49A"/>
<path d="M16.5205 11.2716C16.3294 11.2725 16.14 11.2353 15.9636 11.162C15.7871 11.0888 15.627 10.981 15.4927 10.8451L11.8278 7.18014C11.5709 6.90444 11.4311 6.53978 11.4377 6.16301C11.4444 5.78624 11.5971 5.42678 11.8636 5.16032C12.13 4.89386 12.4895 4.74137 12.8662 4.73472C13.243 4.72808 13.6077 4.86792 13.8834 5.12482L17.558 8.78974C17.828 9.06366 17.9793 9.43266 17.9793 9.81728C17.9793 10.2019 17.828 10.5711 17.558 10.8451C17.4223 10.9817 17.2604 11.0899 17.0822 11.1632C16.9041 11.2365 16.7131 11.2733 16.5205 11.2716Z" fill="#02B49A"/>
</svg>
