<svg width="56" height="56" viewBox="0 0 56 56" fill="none" xmlns="http://www.w3.org/2000/svg">
<rect width="56" height="56" fill="white"/>
<path d="M46.2027 37.4779V46.9168C46.2027 47.2041 46.0886 47.4796 45.8854 47.6827C45.6823 47.8858 45.4068 48 45.1195 48H32.7746C32.4873 48 32.2118 47.8858 32.0086 47.6827C31.8055 47.4796 31.6914 47.2041 31.6914 46.9168V37.4779C31.6909 36.6493 31.9226 35.837 32.3601 35.1333C32.7977 34.4296 33.4238 33.8626 34.1672 33.4966C34.7875 34.1362 35.5299 34.6448 36.3504 34.9921C37.171 35.3394 38.0529 35.5184 38.9439 35.5184C39.835 35.5184 40.7169 35.3394 41.5374 34.9921C42.358 34.6448 43.1004 34.1362 43.7207 33.4966C44.4653 33.8618 45.0925 34.4284 45.5313 35.1322C45.97 35.8359 46.2026 36.6486 46.2027 37.4779Z" fill="#FBC80B"/>
<path d="M24.3081 37.4779V46.9168C24.3081 47.2041 24.194 47.4796 23.9909 47.6827C23.7878 47.8858 23.5123 48 23.225 48H10.88C10.5928 48 10.3172 47.8858 10.1141 47.6827C9.91098 47.4796 9.79688 47.2041 9.79688 46.9168V37.4779C9.79636 36.6493 10.028 35.837 10.4656 35.1333C10.9032 34.4296 11.5292 33.8626 12.2727 33.4966C12.8929 34.1362 13.6354 34.6448 14.4559 34.9921C15.2765 35.3394 16.1584 35.5184 17.0494 35.5184C17.9404 35.5184 18.8224 35.3394 19.6429 34.9921C20.4634 34.6448 21.2059 34.1362 21.8262 33.4966C22.5707 33.8618 23.198 34.4284 23.6368 35.1322C24.0755 35.8359 24.3081 36.6486 24.3081 37.4779Z" fill="#FBC80B"/>
<path d="M27.9996 36.7554C30.3164 36.7554 32.1945 34.8773 32.1945 32.5605C32.1945 30.2437 30.3164 28.3656 27.9996 28.3656C25.6828 28.3656 23.8047 30.2437 23.8047 32.5605C23.8047 34.8773 25.6828 36.7554 27.9996 36.7554Z" fill="#FF611C"/>
<g style="mix-blend-mode:multiply">
<path d="M35.2573 41.1917V46.9169C35.2573 47.2042 35.1432 47.4797 34.9401 47.6828C34.737 47.8859 34.4615 48 34.1742 48H21.8293C21.542 48 21.2665 47.8859 21.0633 47.6828C20.8602 47.4797 20.7461 47.2042 20.7461 46.9169V41.1917C20.7456 40.363 20.9773 39.5508 21.4149 38.8471C21.8524 38.1434 22.4785 37.5764 23.2219 37.2103C23.8422 37.85 24.5846 38.3586 25.4051 38.7059C26.2257 39.0532 27.1076 39.2321 27.9986 39.2321C28.8896 39.2321 29.7716 39.0532 30.5921 38.7059C31.4127 38.3586 32.1551 37.85 32.7754 37.2103C33.52 37.5755 34.1472 38.1421 34.586 38.8459C35.0247 39.5497 35.2573 40.3624 35.2573 41.1917Z" fill="#FF611C"/>
</g>
<path d="M38.9527 33.0416C41.2695 33.0416 43.1477 31.1635 43.1477 28.8467C43.1477 26.53 41.2695 24.6519 38.9527 24.6519C36.6359 24.6519 34.7578 26.53 34.7578 28.8467C34.7578 31.1635 36.6359 33.0416 38.9527 33.0416Z" fill="#FBC80B"/>
<path d="M17.0504 33.0416C19.3672 33.0416 21.2453 31.1635 21.2453 28.8467C21.2453 26.53 19.3672 24.6519 17.0504 24.6519C14.7336 24.6519 12.8555 26.53 12.8555 28.8467C12.8555 31.1635 14.7336 33.0416 17.0504 33.0416Z" fill="#FBC80B"/>
<path d="M36.9921 17.138L35.1523 18.9778L28.74 25.3916C28.5438 25.5877 28.2778 25.6979 28.0003 25.6979C27.7229 25.6979 27.4569 25.5877 27.2607 25.3916L20.8484 18.9778L19.0085 17.138C18.0601 16.1896 17.5273 14.9033 17.5273 13.562C17.5273 12.2208 18.0601 10.9345 19.0085 9.98609C19.957 9.03769 21.2433 8.50488 22.5845 8.50488C23.9258 8.50488 25.2121 9.03769 26.1605 9.98609L28.0003 11.8259L29.8402 9.98609C30.7886 9.03769 32.0749 8.50488 33.4162 8.50488C34.7574 8.50488 36.0437 9.03769 36.9921 9.98609C37.9405 10.9345 38.4733 12.2208 38.4733 13.562C38.4733 14.9033 37.9405 16.1896 36.9921 17.138Z" fill="#FF611C"/>
<path d="M41.9631 12.3844C41.7416 12.3845 41.5263 12.3115 41.3506 12.1767C41.1749 12.0419 41.0486 11.8529 40.9913 11.639C40.934 11.4251 40.9489 11.1982 41.0336 10.9936C41.1184 10.7891 41.2683 10.6182 41.4602 10.5075L45.587 8.13386C45.8182 8.0009 46.0929 7.96524 46.3504 8.03474C46.6079 8.10424 46.8273 8.27321 46.9603 8.50446C47.0932 8.73571 47.1289 9.0103 47.0594 9.26784C46.9899 9.52538 46.821 9.74477 46.5897 9.87774L42.4629 12.2514C42.3106 12.3384 42.1384 12.3843 41.9631 12.3844Z" fill="#02B49A"/>
<path d="M46.0842 21.0744C45.9087 21.0744 45.7362 21.028 45.5844 20.9398L41.4576 18.5677C41.2263 18.4347 41.0574 18.2153 40.9879 17.9578C40.9184 17.7002 40.954 17.4257 41.087 17.1944C41.22 16.9631 41.4393 16.7942 41.6969 16.7247C41.9544 16.6552 42.229 16.6908 42.4603 16.8238L46.5871 19.1959C46.7797 19.3062 46.9304 19.4772 47.0157 19.6821C47.101 19.887 47.1161 20.1143 47.0587 20.3287C47.0013 20.5431 46.8746 20.7325 46.6984 20.8674C46.5221 21.0022 46.3062 21.075 46.0842 21.0744Z" fill="#02B49A"/>
<path d="M14.0373 12.3844C13.862 12.3843 13.6898 12.3384 13.5375 12.2514L9.41071 9.87774C9.17946 9.74477 9.01049 9.52538 8.94099 9.26784C8.87149 9.0103 8.90715 8.73571 9.04012 8.50446C9.17308 8.27321 9.39246 8.10424 9.65 8.03474C9.90754 7.96524 10.1822 8.0009 10.4134 8.13386L14.5402 10.5075C14.7321 10.6182 14.882 10.7891 14.9668 10.9936C15.0515 11.1982 15.0664 11.4251 15.0091 11.639C14.9518 11.8529 14.8255 12.0419 14.6498 12.1767C14.4741 12.3115 14.2588 12.3845 14.0373 12.3844Z" fill="#02B49A"/>
<path d="M9.91497 21.0744C9.69303 21.075 9.47709 21.0022 9.30082 20.8674C9.12456 20.7325 8.99786 20.5431 8.94046 20.3287C8.88306 20.1143 8.89821 19.887 8.98351 19.6821C9.06881 19.4772 9.21949 19.3062 9.41208 19.1959L13.5389 16.8238C13.7702 16.6908 14.0448 16.6552 14.3023 16.7247C14.5599 16.7942 14.7792 16.9631 14.9122 17.1944C15.0452 17.4257 15.0808 17.7002 15.0113 17.9578C14.9418 18.2153 14.7729 18.4347 14.5416 18.5677L10.4148 20.9398C10.263 21.028 10.0905 21.0744 9.91497 21.0744Z" fill="#02B49A"/>
</svg>
