<svg width="56" height="56" viewBox="0 0 56 56" fill="none" xmlns="http://www.w3.org/2000/svg">
<rect width="56" height="56" fill="white"/>
<path d="M33.9932 43.0052V48.8572C33.9935 49.27 33.9123 49.6788 33.7545 50.0602C33.5967 50.4416 33.3652 50.7882 33.0734 51.08C32.7815 51.3719 32.4349 51.6034 32.0535 51.7612C31.6721 51.9191 31.2633 52.0002 30.8505 52H25.1505C24.7377 52.0002 24.3289 51.9191 23.9475 51.7612C23.5661 51.6034 23.2196 51.3719 22.9277 51.08C22.6358 50.7882 22.4044 50.4416 22.2466 50.0602C22.0887 49.6788 22.0076 49.27 22.0078 48.8572V43.0052H33.9932Z" fill="#FF611C"/>
<path d="M41.9762 28.1754C41.983 30.1963 41.5503 32.1945 40.7079 34.0315C39.8656 35.8684 38.6338 37.5002 37.098 38.8138C35.7971 39.9335 34.7701 41.3366 34.096 42.9152C34.0844 42.9414 34.0655 42.9637 34.0415 42.9793C34.0175 42.995 33.9895 43.0033 33.9609 43.0034H22.0411C22.0124 43.0036 21.9843 42.9953 21.9603 42.9796C21.9363 42.9639 21.9174 42.9415 21.906 42.9152C21.5581 42.1158 21.1173 41.3601 20.5926 40.6637C20.0701 39.9644 19.4738 39.3234 18.814 38.7518C16.6714 36.8874 15.1476 34.4145 14.4455 31.6625C13.7434 28.9104 13.8963 26.0098 14.8839 23.3468C15.8715 20.6838 17.6468 18.3849 19.9735 16.7561C22.3002 15.1272 25.068 14.2459 27.9082 14.2293C35.6101 14.1786 41.9612 20.4809 41.9762 28.1754Z" fill="#FBC80B"/>
<path d="M28.001 11.0678C27.6029 11.0678 27.2211 10.9097 26.9397 10.6282C26.6582 10.3467 26.5 9.96491 26.5 9.56682V5.501C26.5 5.10291 26.6582 4.72112 26.9397 4.43963C27.2211 4.15814 27.6029 4 28.001 4C28.3991 4 28.7808 4.15814 29.0623 4.43963C29.3438 4.72112 29.502 5.10291 29.502 5.501V9.56682C29.502 9.96491 29.3438 10.3467 29.0623 10.6282C28.7808 10.9097 28.3991 11.0678 28.001 11.0678Z" fill="#02B49A"/>
<path d="M14.8215 16.5258C14.6243 16.526 14.4291 16.4873 14.2469 16.4119C14.0647 16.3366 13.8991 16.2261 13.7596 16.0868L10.8851 13.2123C10.6035 12.9307 10.4453 12.5487 10.4453 12.1504C10.4453 11.7521 10.6035 11.3701 10.8851 11.0884C11.1668 10.8068 11.5488 10.6486 11.9471 10.6486C12.3454 10.6486 12.7275 10.8068 13.0091 11.0884L15.8835 13.9628C16.0936 14.1728 16.2368 14.4403 16.2948 14.7316C16.3529 15.023 16.3231 15.3249 16.2094 15.5994C16.0957 15.8738 15.9032 16.1083 15.6561 16.2732C15.4091 16.4381 15.1185 16.526 14.8215 16.5258Z" fill="#02B49A"/>
<path d="M9.36368 29.7045H5.29787C4.89978 29.7045 4.51802 29.5464 4.23653 29.2649C3.95504 28.9834 3.79688 28.6016 3.79688 28.2035C3.79688 27.8054 3.95504 27.4236 4.23653 27.1421C4.51802 26.8607 4.89978 26.7025 5.29787 26.7025H9.36368C9.76177 26.7025 10.1435 26.8607 10.425 27.1421C10.7065 27.4236 10.8647 27.8054 10.8647 28.2035C10.8647 28.6016 10.7065 28.9834 10.425 29.2649C10.1435 29.5464 9.76177 29.7045 9.36368 29.7045Z" fill="#02B49A"/>
<path d="M11.9475 45.7577C11.6504 45.758 11.36 45.67 11.113 45.5051C10.8659 45.3402 10.6733 45.1057 10.5596 44.8313C10.4459 44.5569 10.4162 44.2549 10.4742 43.9636C10.5322 43.6723 10.6753 43.4047 10.8855 43.1948L13.7599 40.3204C14.0416 40.0387 14.4235 39.8805 14.8218 39.8805C15.2202 39.8805 15.6022 40.0387 15.8838 40.3204C16.1655 40.602 16.3238 40.984 16.3238 41.3823C16.3238 41.7806 16.1655 42.1626 15.8838 42.4443L13.0094 45.3243C12.7268 45.6037 12.3449 45.7595 11.9475 45.7577Z" fill="#02B49A"/>
<path d="M44.0521 45.7577C43.8549 45.7579 43.6596 45.7192 43.4774 45.6439C43.2952 45.5685 43.1296 45.458 42.9901 45.3187L40.1157 42.4443C39.8341 42.1626 39.6758 41.7806 39.6758 41.3823C39.6758 40.984 39.8341 40.602 40.1157 40.3204C40.3974 40.0387 40.7794 39.8805 41.1777 39.8805C41.576 39.8805 41.9579 40.0387 42.2396 40.3204L45.1141 43.1948C45.3242 43.4047 45.4673 43.6723 45.5253 43.9636C45.5833 44.2549 45.5536 44.5569 45.4399 44.8313C45.3262 45.1057 45.1336 45.3402 44.8866 45.5051C44.6395 45.67 44.3491 45.758 44.0521 45.7577Z" fill="#02B49A"/>
<path d="M50.7035 29.7045H46.6377C46.2396 29.7045 45.8579 29.5464 45.5764 29.2649C45.2949 28.9834 45.1367 28.6016 45.1367 28.2035C45.1367 27.8054 45.2949 27.4236 45.5764 27.1421C45.8579 26.8607 46.2396 26.7025 46.6377 26.7025H50.7035C51.1016 26.7025 51.4834 26.8607 51.7649 27.1421C52.0464 27.4236 52.2045 27.8054 52.2045 28.2035C52.2045 28.6016 52.0464 28.9834 51.7649 29.2649C51.4834 29.5464 51.1016 29.7045 50.7035 29.7045Z" fill="#02B49A"/>
<path d="M41.178 16.5258C40.881 16.526 40.5905 16.4381 40.3434 16.2732C40.0963 16.1083 39.9039 15.8738 39.7901 15.5994C39.6764 15.3249 39.6467 15.023 39.7047 14.7316C39.7627 14.4403 39.9059 14.1728 40.116 13.9628L42.9904 11.0884C43.272 10.8068 43.6541 10.6486 44.0524 10.6486C44.4507 10.6486 44.8327 10.8068 45.1144 11.0884C45.396 11.3701 45.5542 11.7521 45.5542 12.1504C45.5542 12.5487 45.396 12.9307 45.1144 13.2123L42.2399 16.0868C42.1004 16.2261 41.9348 16.3366 41.7526 16.4119C41.5704 16.4873 41.3752 16.526 41.178 16.5258Z" fill="#02B49A"/>
<path d="M31.173 22.5542C30.9273 21.7024 30.6102 20.8074 30.0023 20.0494C29.2068 19.0662 28.0472 18.584 26.974 18.7923C26.0359 18.9799 25.201 19.6685 24.7075 20.6929C24.3759 21.4531 24.1748 22.2637 24.1128 23.0908C23.4888 28.8065 24.5389 34.5805 27.1354 39.7105C26.4986 40.8823 25.7442 41.9862 24.8839 43.0052H27.7245C27.9647 42.6675 28.1936 42.3204 28.4131 41.9677C28.637 42.3204 28.8678 42.6663 29.1054 43.0052H31.9198C31.0797 41.9597 30.3267 40.8472 29.6683 39.6787C32.1581 34.4514 32.7922 28.1792 31.173 22.5542ZM28.3587 37.0257C26.5279 32.7125 25.8342 28.0019 26.3436 23.3441C26.3822 22.7691 26.5127 22.2041 26.7302 21.6705C26.9009 21.3159 27.1692 21.0457 27.3962 21.0025C27.4205 21.0007 27.445 21.0007 27.4694 21.0025C27.6239 21.0248 27.7722 21.078 27.9056 21.1589C28.0391 21.2398 28.1549 21.3468 28.2461 21.4735C28.6063 21.92 28.8221 22.5598 28.9966 23.1846C30.31 27.6876 30.0098 32.6653 28.3737 37.0257H28.3587Z" fill="#FEF1C2"/>
</svg>
