<svg width="56" height="56" viewBox="0 0 56 56" fill="none" xmlns="http://www.w3.org/2000/svg">
<rect width="56" height="56" fill="white"/>
<path d="M39.676 33.3479V46.7928C39.6751 47.0062 39.6179 47.2155 39.5096 47.3994C39.4012 47.5833 39.2458 47.7351 39.0595 47.8393C38.8733 47.9434 38.6623 47.9963 38.4489 47.9924C38.2355 47.9884 38.0271 47.9278 37.8448 47.8168L27.9903 41.7208L18.1594 47.8168C17.9769 47.9309 17.7669 47.994 17.5517 47.9996C17.3366 48.0051 17.124 47.9529 16.9358 47.8484C16.7477 47.7439 16.5907 47.5908 16.4817 47.4051C16.3727 47.2195 16.316 47.008 16.3164 46.7928V33.3719C17.6582 35.2114 19.4151 36.708 21.4448 37.7398C23.4745 38.7716 25.7193 39.3094 27.9962 39.3094C30.2731 39.3094 32.5179 38.7716 34.5476 37.7398C36.5773 36.708 38.3343 35.2114 39.676 33.3719V33.3479Z" fill="#02B49A"/>
<g style="mix-blend-mode:multiply">
<path d="M27.9993 41.7329C37.3144 41.7329 44.8657 34.1815 44.8657 24.8665C44.8657 15.5514 37.3144 8 27.9993 8C18.6842 8 11.1328 15.5514 11.1328 24.8665C11.1328 34.1815 18.6842 41.7329 27.9993 41.7329Z" fill="#FF611C"/>
</g>
<path d="M25.7255 31.4925C25.2472 31.4882 24.7898 31.2981 24.449 30.9624L19.3529 25.8543C19.1754 25.6888 19.0329 25.4893 18.9341 25.2676C18.8353 25.046 18.7819 24.8067 18.7776 24.5641C18.7733 24.3214 18.8179 24.0804 18.9088 23.8554C18.9997 23.6304 19.1355 23.4259 19.3071 23.2543C19.4787 23.0827 19.6826 22.9475 19.9077 22.8567C20.1327 22.7658 20.3739 22.7211 20.6165 22.7253C20.8592 22.7296 21.0984 22.7827 21.3201 22.8815C21.5417 22.9803 21.7411 23.1227 21.9066 23.3002L25.7255 27.1193L34.087 18.7703C34.2524 18.5928 34.4518 18.4504 34.6735 18.3517C34.8951 18.2529 35.1344 18.1998 35.377 18.1955C35.6197 18.1912 35.8608 18.2359 36.0859 18.3268C36.3109 18.4177 36.5149 18.5529 36.6865 18.7245C36.8581 18.8961 36.9932 19.1005 37.0841 19.3255C37.175 19.5505 37.2202 19.7916 37.2159 20.0342C37.2116 20.2769 37.1582 20.5162 37.0594 20.7379C36.9607 20.9596 36.8181 21.159 36.6406 21.3244L27.0026 30.9624C26.8354 31.1308 26.6365 31.2643 26.4173 31.3553C26.1981 31.4463 25.9628 31.493 25.7255 31.4925Z" fill="#FBC80B"/>
</svg>
