<svg width="89" height="56" viewBox="0 0 89 56" fill="none" xmlns="http://www.w3.org/2000/svg">
<rect width="89" height="56" fill="white"/>
<path d="M79.1874 10.8683C79.046 10.8694 78.9058 10.8416 78.7754 10.7868C78.6451 10.732 78.5272 10.6512 78.429 10.5494C78.329 10.4501 78.2496 10.332 78.1954 10.2018C78.1412 10.0717 78.1133 9.93208 78.1133 9.7911C78.1133 9.65012 78.1412 9.51052 78.1954 9.38037C78.2496 9.25021 78.329 9.13208 78.429 9.03275L80.1525 7.30923C80.3583 7.12634 80.6262 7.02915 80.9014 7.03762C81.1765 7.04609 81.4379 7.15958 81.632 7.35478C81.8261 7.54998 81.9382 7.81207 81.9451 8.08726C81.952 8.36244 81.8533 8.62984 81.6692 8.83454L79.9457 10.5581C79.8468 10.6583 79.7286 10.7375 79.5983 10.7908C79.468 10.8441 79.3282 10.8705 79.1874 10.8683Z" fill="#02B49A"/>
<path d="M83.9046 16.7452H81.3194C81.0337 16.7452 80.7597 16.6317 80.5577 16.4297C80.3557 16.2277 80.2422 15.9537 80.2422 15.668C80.2422 15.3823 80.3557 15.1083 80.5577 14.9063C80.7597 14.7043 81.0337 14.5908 81.3194 14.5908H83.9046C84.1903 14.5908 84.4643 14.7043 84.6663 14.9063C84.8683 15.1083 84.9818 15.3823 84.9818 15.668C84.9818 15.9537 84.8683 16.2277 84.6663 16.4297C84.4643 16.6317 84.1903 16.7452 83.9046 16.7452Z" fill="#02B49A"/>
<path d="M73.3311 8.73967C73.0454 8.73967 72.7714 8.62618 72.5694 8.42416C72.3674 8.22215 72.2539 7.94816 72.2539 7.66247V5.0772C72.2539 4.79151 72.3674 4.51749 72.5694 4.31548C72.7714 4.11347 73.0454 4 73.3311 4C73.6168 4 73.8908 4.11347 74.0928 4.31548C74.2948 4.51749 74.4083 4.79151 74.4083 5.0772V7.66247C74.4083 7.94816 74.2948 8.22215 74.0928 8.42416C73.8908 8.62618 73.6168 8.73967 73.3311 8.73967Z" fill="#02B49A"/>
<path d="M8.12524 48.9925C7.91316 48.9912 7.70618 48.9273 7.53026 48.8088C7.35434 48.6904 7.21728 48.5226 7.1363 48.3266C7.05532 48.1306 7.03401 47.915 7.07503 47.707C7.11604 47.4989 7.21758 47.3075 7.36689 47.1569L9.0904 45.4334C9.29509 45.2494 9.56246 45.1507 9.83764 45.1576C10.1128 45.1645 10.3749 45.2765 10.5701 45.4706C10.7653 45.6647 10.8788 45.9261 10.8873 46.2013C10.8957 46.4764 10.7986 46.7444 10.6157 46.9501L8.89216 48.6736C8.79207 48.7753 8.67269 48.8558 8.54096 48.9106C8.40924 48.9654 8.26789 48.9932 8.12524 48.9925Z" fill="#02B49A"/>
<path d="M7.66245 41.4264H5.07719C4.7915 41.4264 4.51754 41.3129 4.31553 41.1109C4.11352 40.9088 4 40.6349 4 40.3492C4 40.0635 4.11352 39.7895 4.31553 39.5875C4.51754 39.3855 4.7915 39.272 5.07719 39.272H7.66245C7.94814 39.272 8.22215 39.3855 8.42416 39.5875C8.62618 39.7895 8.73964 40.0635 8.73964 40.3492C8.73964 40.6349 8.62618 40.9088 8.42416 41.1109C8.22215 41.3129 7.94814 41.4264 7.66245 41.4264Z" fill="#02B49A"/>
<path d="M15.6788 51.9999C15.3931 51.9999 15.1191 51.8864 14.9171 51.6844C14.7151 51.4824 14.6016 51.2084 14.6016 50.9227V48.3375C14.6016 48.0518 14.7151 47.7778 14.9171 47.5758C15.1191 47.3737 15.3931 47.2603 15.6788 47.2603C15.9644 47.2603 16.2385 47.3737 16.4405 47.5758C16.6425 47.7778 16.7559 48.0518 16.7559 48.3375V50.9227C16.7559 51.2084 16.6425 51.4824 16.4405 51.6844C16.2385 51.8864 15.9644 51.9999 15.6788 51.9999Z" fill="#02B49A"/>
<path d="M49.0034 28.0952C48.9896 28.7154 48.818 29.322 48.5049 29.8576C48.1918 30.3932 47.7475 30.8403 47.2139 31.1567C46.6802 31.4731 46.0748 31.6485 45.4546 31.6661C44.8344 31.6838 44.22 31.5433 43.6691 31.2578C43.5466 31.1939 43.4097 31.1628 43.2716 31.1674C43.1335 31.1721 42.999 31.2124 42.8811 31.2843C42.7631 31.3563 42.6658 31.4575 42.5985 31.5782C42.5312 31.6989 42.4963 31.8349 42.4971 31.9731V40.5906C42.4971 40.8023 42.4554 41.0118 42.3744 41.2073C42.2935 41.4028 42.1748 41.5805 42.0251 41.7302C41.8755 41.8798 41.6978 41.9985 41.5023 42.0795C41.3068 42.1605 41.0972 42.2021 40.8856 42.2021H32.2681C32.1299 42.2013 31.9939 42.2363 31.8733 42.3035C31.7526 42.3708 31.6514 42.4681 31.5794 42.586C31.5074 42.704 31.4672 42.8385 31.4625 42.9766C31.4579 43.1147 31.489 43.2516 31.5529 43.3741C31.8384 43.9249 31.9789 44.5394 31.9612 45.1596C31.9435 45.7798 31.7682 46.3852 31.4518 46.9189C31.1354 47.4526 30.6883 47.8969 30.1526 48.21C29.617 48.5231 29.0105 48.6946 28.3902 48.7084C27.9025 48.7199 27.4173 48.6336 26.9635 48.4546C26.5096 48.2756 26.0962 48.0075 25.7476 47.6661C25.399 47.3248 25.1223 46.9171 24.9338 46.4671C24.7454 46.017 24.6489 45.5338 24.6502 45.0459C24.6473 44.4705 24.7833 43.903 25.0466 43.3914C25.112 43.268 25.1443 43.1298 25.1405 42.9902C25.1367 42.8506 25.097 42.7143 25.025 42.5947C24.953 42.475 24.8513 42.376 24.7298 42.3072C24.6082 42.2384 24.471 42.2022 24.3314 42.2021H15.7139C15.2857 42.2021 14.8749 42.0326 14.5713 41.7307C14.2677 41.4287 14.096 41.0188 14.0938 40.5906V36.437C14.0927 36.0649 14.2211 35.7041 14.4569 35.4164C14.6928 35.1287 15.0214 34.932 15.3864 34.86C16.9789 34.5594 18.4164 33.7121 19.4507 32.4644C20.4849 31.2166 21.0509 29.6469 21.0509 28.0262C21.0509 26.4056 20.4849 24.8358 19.4507 23.5881C18.4164 22.3404 16.9789 21.493 15.3864 21.1925C15.0214 21.1205 14.6928 20.9237 14.4569 20.636C14.2211 20.3483 14.0927 19.9875 14.0938 19.6155V15.4446C14.096 15.0164 14.2677 14.6065 14.5713 14.3045C14.8749 14.0026 15.2857 13.833 15.7139 13.833H19.8589C20.232 13.8317 20.5939 13.9598 20.8831 14.1955C21.1723 14.4312 21.3707 14.76 21.4445 15.1257C21.745 16.7182 22.5924 18.1558 23.8401 19.1901C25.0878 20.2243 26.6575 20.7903 28.2782 20.7903C29.8988 20.7903 31.4686 20.2243 32.7163 19.1901C33.964 18.1558 34.8114 16.7182 35.1119 15.1257C35.1824 14.7599 35.3787 14.4304 35.6667 14.1943C35.9548 13.9582 36.3164 13.8304 36.6889 13.833H40.8426C41.0542 13.833 41.2637 13.8747 41.4593 13.9557C41.6548 14.0367 41.8324 14.1554 41.9821 14.3051C42.1317 14.4547 42.2504 14.6323 42.3314 14.8279C42.4124 15.0234 42.454 15.2329 42.454 15.4446V24.0621C42.4577 24.2008 42.497 24.3362 42.568 24.4553C42.639 24.5745 42.7395 24.6734 42.8597 24.7426C42.9799 24.8118 43.1159 24.8489 43.2546 24.8505C43.3933 24.8521 43.5301 24.818 43.6519 24.7515C44.1655 24.4845 44.7361 24.3456 45.3151 24.3465C45.8055 24.3429 46.2917 24.4379 46.7448 24.6257C47.1979 24.8136 47.6086 25.0906 47.9526 25.4402C48.2966 25.7898 48.5668 26.205 48.7473 26.6611C48.9278 27.1171 49.0149 27.6048 49.0034 28.0952Z" fill="#FF611C"/>
<path d="M81.3666 27.9226C81.3544 27.3026 81.1842 26.6959 80.8721 26.1601C80.5601 25.6242 80.1165 25.1768 79.5833 24.8601C79.0501 24.5435 78.445 24.3681 77.8251 24.3506C77.2052 24.333 76.5912 24.4739 76.041 24.7599C75.9185 24.8238 75.7815 24.8549 75.6434 24.8503C75.5054 24.8457 75.3708 24.8054 75.2529 24.7334C75.135 24.6614 75.0376 24.5602 74.9703 24.4395C74.9031 24.3188 74.8681 24.1828 74.8689 24.0447V15.4271C74.8667 14.9989 74.695 14.589 74.3914 14.2871C74.0878 13.9851 73.677 13.8156 73.2488 13.8156H64.6313C64.4932 13.8164 64.3571 13.7815 64.2365 13.7142C64.1158 13.6469 64.0146 13.5496 63.9426 13.4317C63.8706 13.3138 63.8304 13.1792 63.8257 13.0411C63.8211 12.903 63.8522 12.7661 63.9161 12.6436C64.21 12.072 64.3468 11.4326 64.3125 10.7908C64.251 9.87619 63.8519 9.01703 63.1927 8.38007C62.5334 7.74311 61.661 7.37378 60.7448 7.34379C60.2571 7.33228 59.772 7.41859 59.3181 7.5976C58.8642 7.7766 58.4508 8.04468 58.1022 8.38604C57.7536 8.7274 57.4769 9.13513 57.2884 9.58516C57.0999 10.0352 57.0035 10.5184 57.0048 11.0063C57.0128 11.5927 57.1605 12.1688 57.4357 12.6867C57.5007 12.8095 57.5331 12.9469 57.5297 13.0858C57.5263 13.2246 57.4872 13.3603 57.4163 13.4797C57.3453 13.5991 57.2448 13.6983 57.1245 13.7677C57.0041 13.8371 56.868 13.8744 56.729 13.8759H48.1115C47.6841 13.8759 47.2743 14.0457 46.972 14.3479C46.6698 14.6501 46.5 15.06 46.5 15.4874V19.5808C46.4973 19.9532 46.6252 20.3149 46.8613 20.6029C47.0974 20.891 47.4269 21.0873 47.7927 21.1578C49.3852 21.4583 50.8228 22.3057 51.857 23.5534C52.8913 24.8011 53.4573 26.3709 53.4573 27.9915C53.4573 29.6122 52.8913 31.1819 51.857 32.4297C50.8228 33.6774 49.3852 34.5247 47.7927 34.8253C47.4269 34.8957 47.0974 35.092 46.8613 35.3801C46.6252 35.6682 46.4973 36.0298 46.5 36.4023V40.5559C46.5 40.9833 46.6698 41.3932 46.972 41.6954C47.2743 41.9977 47.6841 42.1674 48.1115 42.1674H52.2652C52.6376 42.1701 52.9993 42.0423 53.2873 41.8062C53.5754 41.5701 53.7717 41.2405 53.8422 40.8748C54.1475 39.285 54.9972 37.8513 56.2452 36.8202C57.4931 35.7891 59.0614 35.225 60.6802 35.225C62.299 35.225 63.8673 35.7891 65.1153 36.8202C66.3632 37.8513 67.2129 39.285 67.5182 40.8748C67.5887 41.2405 67.7849 41.5701 68.073 41.8062C68.3611 42.0423 68.7228 42.1701 69.0952 42.1674H73.2403C73.6685 42.1674 74.0792 41.9979 74.3828 41.696C74.6864 41.394 74.858 40.9841 74.8603 40.5559V31.9384C74.8604 31.7987 74.8966 31.6615 74.9654 31.54C75.0342 31.4184 75.1332 31.3167 75.2529 31.2448C75.3726 31.1728 75.5088 31.133 75.6484 31.1292C75.788 31.1254 75.9261 31.1578 76.0495 31.2231C76.5601 31.4901 77.128 31.6291 77.7041 31.6281C78.1891 31.6293 78.6694 31.534 79.1171 31.3476C79.5648 31.1613 79.9709 30.8877 80.3118 30.5428C80.6527 30.1979 80.9215 29.7886 81.1026 29.3387C81.2837 28.8889 81.3735 28.4075 81.3666 27.9226Z" fill="#FBC80B"/>
</svg>
