<svg width="56" height="56" viewBox="0 0 56 56" fill="none" xmlns="http://www.w3.org/2000/svg">
<rect width="56" height="56" fill="white"/>
<path d="M52 28C52 31 47.86 33.16 46.77 35.77C45.68 38.38 47.02 42.93 44.98 44.97C42.94 47.01 38.49 45.64 35.78 46.77C33.07 47.9 31.01 52 28 52C24.99 52 22.84 47.85 20.23 46.77C17.62 45.69 13.07 47.01 11.03 44.97C8.99 42.93 10.36 38.48 9.23999 35.77C8.11999 33.06 4 31 4 28C4 25 8.14999 22.84 9.23999 20.22C10.33 17.6 8.99 13.07 11.03 11.03C13.07 8.99 17.52 10.35 20.23 9.22998C22.94 8.10998 25 4 28 4C31 4 33.17 8.14998 35.78 9.22998C38.39 10.31 42.94 8.99 44.98 11.03C47.02 13.07 45.65 17.52 46.77 20.22C47.89 22.92 52 24.99 52 28Z" fill="#FF611C"/>
<path d="M27.9984 41.8499C35.6476 41.8499 41.8484 35.649 41.8484 27.9999C41.8484 20.3508 35.6476 14.1499 27.9984 14.1499C20.3493 14.1499 14.1484 20.3508 14.1484 27.9999C14.1484 35.649 20.3493 41.8499 27.9984 41.8499Z" fill="#FBC80B"/>
<path d="M32.9248 21.8008C33.1333 21.8235 33.3352 21.8897 33.5166 21.9951C33.6979 22.1006 33.8556 22.2431 33.9785 22.4131C34.1013 22.5831 34.1872 22.7773 34.2305 22.9824C34.2737 23.1877 34.2733 23.4004 34.2295 23.6055C34.1888 23.7955 34.1093 23.9744 34 24.1348L34.001 24.1357L28.4912 33.3857L28.4893 33.3887C28.3658 33.593 28.1955 33.7654 27.9922 33.8906C27.7887 34.0158 27.5575 34.0903 27.3193 34.1084L27.3008 34.1104H27.2012V34.1094C26.9804 34.111 26.762 34.0642 26.5615 33.9717C26.3593 33.8783 26.1797 33.7415 26.0371 33.5703L26.0352 33.5674L22.1455 28.8271H22.1445C21.8944 28.5221 21.7751 28.1302 21.8115 27.7373C21.848 27.3443 22.0377 26.9814 22.3398 26.7275L22.3418 26.7256C22.4933 26.5995 22.6683 26.5048 22.8564 26.4463C23.0448 26.3877 23.243 26.3666 23.4395 26.3848C23.6358 26.4029 23.8266 26.4598 24.001 26.5518C24.1753 26.6437 24.3302 26.7692 24.4561 26.9209L24.457 26.9219L27.0059 30.0146L31.4219 22.624C31.5069 22.4534 31.6221 22.299 31.7646 22.1719C31.9212 22.0323 32.1058 21.9273 32.3057 21.8633C32.5054 21.7994 32.7163 21.7781 32.9248 21.8008ZM22.4414 28.3779C22.468 28.4236 22.4973 28.4684 22.5312 28.5098L26.4219 33.25C26.5169 33.364 26.6358 33.4563 26.7705 33.5186C26.9053 33.5807 27.0528 33.612 27.2012 33.6104H27.2812L27.3994 33.5938C27.3608 33.6014 27.3217 33.6064 27.2822 33.6094H27.2021C27.0536 33.6111 26.9064 33.5798 26.7715 33.5176C26.6366 33.4553 26.517 33.3641 26.4219 33.25L22.5322 28.5098C22.4981 28.4682 22.4681 28.4238 22.4414 28.3779ZM22.3086 27.7832C22.2935 27.9466 22.3189 28.1098 22.3809 28.2588C22.3191 28.1098 22.2944 27.9466 22.3096 27.7832C22.311 27.7678 22.3143 27.7526 22.3164 27.7373C22.3143 27.7525 22.31 27.7678 22.3086 27.7832ZM22.3447 27.5967C22.3402 27.6121 22.3368 27.6279 22.333 27.6436C22.3368 27.6279 22.3402 27.6121 22.3447 27.5967ZM22.4053 27.4404C22.4007 27.4499 22.3959 27.4592 22.3916 27.4688C22.3959 27.4592 22.4007 27.4499 22.4053 27.4404ZM22.4941 27.291C22.4882 27.2993 22.4813 27.307 22.4756 27.3154C22.4813 27.307 22.4882 27.2993 22.4941 27.291ZM22.7979 27.0146C22.7872 27.0209 22.777 27.0276 22.7666 27.0342C22.777 27.0276 22.7872 27.0208 22.7979 27.0146ZM22.9121 26.957C22.9069 26.9592 22.9017 26.9616 22.8965 26.9639C22.9097 26.958 22.9231 26.9525 22.9365 26.9473L22.9121 26.957ZM23.6426 26.9385C23.6361 26.9361 23.6296 26.9339 23.623 26.9316C23.6296 26.9339 23.6361 26.9361 23.6426 26.9385ZM33.6484 23.7529C33.651 23.748 33.6538 23.7432 33.6562 23.7383C33.6538 23.7432 33.651 23.748 33.6484 23.7529ZM33.7588 23.3623C33.7597 23.3496 33.7603 23.3369 33.7607 23.3242C33.7603 23.3369 33.7597 23.3496 33.7588 23.3623ZM31.9365 22.7295C31.9298 22.7393 31.9243 22.7498 31.918 22.7598C31.9243 22.7497 31.9299 22.7393 31.9365 22.7295ZM33.4814 22.5977C33.4735 22.5893 33.4653 22.5813 33.457 22.5732C33.4653 22.5812 33.4734 22.5894 33.4814 22.5977ZM32.2363 22.4424C32.2271 22.4481 32.218 22.4539 32.209 22.46C32.218 22.4539 32.2271 22.4481 32.2363 22.4424ZM33.1328 22.3633C33.1257 22.3604 33.1185 22.3581 33.1113 22.3555C33.1185 22.3581 33.1257 22.3605 33.1328 22.3633Z" fill="#02B49A"/>
</svg>
