<svg width="56" height="56" viewBox="0 0 56 56" fill="none" xmlns="http://www.w3.org/2000/svg">
<rect width="56" height="56" fill="white"/>
<path d="M28.8254 45.3356C28.243 45.0297 27.5474 45.0297 26.965 45.3356L17.8694 50.1143C16.4017 50.8854 14.687 49.6386 14.9682 48.0046L16.7099 37.883C16.8216 37.2337 16.6065 36.5711 16.1346 36.1113L8.77474 28.9403C7.58725 27.7833 8.24228 25.7669 9.88303 25.5286L20.0473 24.0526C20.6988 23.958 21.262 23.5488 21.5534 22.9585L26.1018 13.7427C26.8354 12.2563 28.9551 12.2563 29.6887 13.7427L34.2371 22.9585C34.5285 23.5488 35.0917 23.958 35.7432 24.0526L45.9075 25.5286C47.5482 25.7669 48.2032 27.7833 47.0157 28.9403L39.6559 36.1113C39.184 36.5711 38.9688 37.2337 39.0806 37.883L40.8223 48.0046C41.1035 49.6386 39.3888 50.8854 37.9211 50.1143L28.8254 45.3356Z" fill="#FBC80B"/>
<g style="mix-blend-mode:multiply">
<path d="M41.6847 42.2794C41.3928 42.1255 41.0438 42.1255 40.7519 42.2794L37.3511 44.0725C36.6178 44.4592 35.7595 43.8369 35.899 43.0197L36.5481 39.2167C36.6035 38.8926 36.4959 38.5619 36.2604 38.3324L33.504 35.6453C32.9108 35.067 33.2377 34.0596 34.0575 33.9398L37.8727 33.3823C38.1986 33.3346 38.4801 33.1297 38.6254 32.8342L40.3227 29.3841C40.6888 28.64 41.7495 28.6392 42.1166 29.3828L43.8213 32.8355C43.9668 33.1302 44.2479 33.3346 44.5732 33.3822L48.3798 33.9394C49.1994 34.0594 49.5262 35.0667 48.9331 35.6449L46.1762 38.3324C45.9408 38.5619 45.8332 38.8926 45.8885 39.2167L46.5377 43.0197C46.6772 43.8369 45.8189 44.4592 45.0856 44.0725L41.6847 42.2794Z" fill="#02B49A"/>
</g>
<path d="M12.8803 15.8168C12.5907 15.6659 12.2457 15.6659 11.9561 15.8168L9.62719 17.0303C8.89317 17.4127 8.03881 16.7888 8.17969 15.9732L8.61884 13.4309C8.67529 13.1041 8.56606 12.7706 8.32723 12.5405L6.47173 10.753C5.87257 10.1758 6.19918 9.16199 7.02259 9.04308L9.61247 8.66908C9.93733 8.62217 10.2185 8.41882 10.3648 8.12499L11.5246 5.79506C11.8923 5.05651 12.9457 5.05575 13.3144 5.79376L14.4797 8.12628C14.6262 8.41938 14.9069 8.62214 15.2312 8.66905L17.8144 9.0427C18.6377 9.16179 18.9642 10.1754 18.3651 10.7526L16.5091 12.5405C16.2703 12.7706 16.1611 13.1041 16.2175 13.4309L16.6567 15.9732C16.7976 16.7888 15.9432 17.4127 15.2092 17.0303L12.8803 15.8168Z" fill="#FF611C"/>
</svg>
