<svg width="221" height="40" viewBox="0 0 221 40" fill="none" xmlns="http://www.w3.org/2000/svg">
<path d="M11.9204 28.9813C9.849 28.9813 8.04155 28.68 6.49802 28.0776C5.07382 27.5454 3.7471 26.7821 2.57121 25.8183C1.62489 25.045 0.763031 24.1737 0 23.2191L4.79854 19.0403C5.51611 20.177 6.44616 21.1648 7.53772 21.9495C8.72269 22.8332 10.2009 23.2757 11.9723 23.2771C13.3666 23.2771 14.4496 23.0038 15.2214 22.4573C15.9911 21.9115 16.379 21.2236 16.379 20.3939C16.3879 20.0809 16.3274 19.7698 16.2019 19.4829C16.0765 19.196 15.8891 18.9404 15.6532 18.7344C15.0708 18.2504 14.399 17.8856 13.6758 17.6607C12.8481 17.3781 11.9257 17.1056 10.9087 16.843C9.85567 16.5404 8.764 16.2012 7.63368 15.8253C6.53651 15.4653 5.49177 14.9617 4.52662 14.3278C3.59002 13.7137 2.80683 12.8928 2.23733 11.9285C1.65351 10.9488 1.36226 9.72447 1.3636 8.25558C1.3636 5.80833 2.32331 3.8223 4.24272 2.29744C6.16214 0.772566 8.70401 0.00942648 11.8684 0.00809355C13.9584 -0.0207248 16.027 0.433644 17.9126 1.33572C19.673 2.17922 21.1611 3.50033 22.2072 5.14852L17.8566 8.59552C17.2155 7.53678 16.2843 6.68401 15.1734 6.13826C14.0764 5.59546 12.8684 5.31481 11.6444 5.31849C10.5514 5.31849 9.65707 5.52573 8.96128 5.94027C8.26549 6.35481 7.91694 6.92006 7.9156 7.63585C7.91005 7.86419 7.94956 8.09134 8.0319 8.30439C8.11424 8.51744 8.23777 8.7122 8.39544 8.87746C8.71534 9.21536 9.24319 9.50924 9.97696 9.75317C10.7107 9.9971 11.6805 10.271 12.8861 10.5729C14.0151 10.8395 15.1827 11.1594 16.389 11.5326C17.5764 11.9018 18.7144 12.4141 19.778 13.0581C20.8193 13.6856 21.6917 14.558 22.3192 15.5993C22.959 16.655 23.2796 17.992 23.2809 19.6101C23.3134 21.3443 22.8206 23.0477 21.8673 24.4966C20.8828 25.9453 19.5131 27.0901 17.9126 27.8017C16.2157 28.5881 14.2183 28.9813 11.9204 28.9813Z" fill="black"/>
<path d="M50.0116 8.7014C49.5049 7.04849 48.6909 5.50604 47.6124 4.15484C46.5333 2.83726 45.1594 1.79202 43.6016 1.10372C41.9841 0.369941 40.0767 0.00209999 37.8973 0.00209999C35.558 0.00209999 33.5533 0.425944 31.8832 1.27369C30.2769 2.06252 28.8752 3.21296 27.7884 4.63467C26.7241 6.04253 25.921 7.62984 25.4171 9.32123C24.8867 11.0415 24.6172 12.8315 24.6174 14.6316C24.609 16.4612 24.8787 18.2814 25.4171 20.03C25.9202 21.7042 26.7552 23.26 27.8724 24.6046C29.0299 25.9838 30.489 27.0783 32.1371 27.8036C33.8699 28.6033 35.9406 29.0032 38.3492 29.0032C39.8007 29.0185 41.2495 28.8751 42.6699 28.5754C43.9443 28.2915 45.1712 27.8255 46.3128 27.1918C47.6159 26.4573 48.8623 25.6267 50.0416 24.7066L46.5387 19.962C45.4783 20.9051 44.2528 21.6439 42.9238 22.1414C41.5881 22.6444 40.1723 22.9011 38.7451 22.8991C36.7883 22.8991 35.1602 22.3906 33.8606 21.3736C32.561 20.3579 31.8172 18.8564 31.6292 16.855H50.6614C50.7334 16.3331 50.7794 15.8333 50.8034 15.3594C50.8274 14.8856 50.8314 14.5256 50.8314 14.2577C50.8459 12.3744 50.5694 10.5002 50.0116 8.7014ZM44.1674 11.6365H31.5713C31.6884 10.6768 31.9848 9.74762 32.445 8.89734C32.9386 7.99209 33.6718 7.24025 34.5643 6.72408C35.5001 6.15825 36.6717 5.87629 38.0653 5.87629C38.9219 5.86227 39.7739 6.00597 40.5785 6.30018C41.2869 6.56799 41.9313 6.9814 42.4699 7.51378C42.9949 8.043 43.4167 8.66548 43.7136 9.34925C44.0161 10.054 44.17 10.8137 44.1654 11.5806L44.1674 11.6365Z" fill="black"/>
<path d="M69.3826 0.369972C68.5099 0.122564 67.6066 -0.000625867 66.6995 0.00406791C65.3417 0.0147389 64.0095 0.374168 62.8306 1.04779C61.5539 1.75744 60.459 2.75313 59.6316 3.95687C59.486 4.16082 59.3525 4.37315 59.2317 4.59271V0.567959H52.1719V28.4114H59.2437V16.4391C59.2274 15.2605 59.2741 14.0818 59.3837 12.9081C59.4538 12.2331 59.5768 11.5646 59.7516 10.9088C60.0291 10.0707 60.4817 9.30128 61.0792 8.65143C61.5993 8.10257 62.2361 7.67762 62.9426 7.40787C63.6365 7.14298 64.3731 7.00745 65.1159 7.00799C65.7668 7.00902 66.414 7.10465 67.0373 7.29189L67.4372 7.41783C67.9632 6.1357 68.6513 4.92622 69.4846 3.81892C70.1528 2.93842 70.9363 2.15169 71.8139 1.47969C71.0562 1.00377 70.2386 0.630565 69.3826 0.369972Z" fill="black"/>
<path d="M92.8006 8.7014C92.2946 7.04817 91.4806 5.50559 90.4013 4.15484C89.3231 2.83639 87.949 1.79098 86.3906 1.10372C84.7737 0.369275 82.8723 0.00209999 80.6863 0.00209999C78.3524 0.00209999 76.3476 0.425944 74.6722 1.27369C73.0673 2.06472 71.6661 3.21478 70.5774 4.63467C69.5154 6.04396 68.7125 7.63084 68.2061 9.32123C67.6777 11.0419 67.4081 12.8316 67.4064 14.6316C67.4 16.4611 67.6696 18.281 68.2061 20.03C68.7092 21.7042 69.5442 23.26 70.6614 24.6046C71.8197 25.9829 73.2786 27.0773 74.9261 27.8036C76.6589 28.6033 78.7296 29.0032 81.1382 29.0032C82.5897 29.0187 84.0386 28.8753 85.4589 28.5754C86.7336 28.2925 87.9606 27.8264 89.1017 27.1918C90.4063 26.4597 91.6529 25.6289 92.8306 24.7066L89.3277 19.962C88.2679 20.9059 87.0422 21.6448 85.7128 22.1414C84.3771 22.6444 82.9613 22.9011 81.5341 22.8991C79.5773 22.8991 77.9491 22.3906 76.6495 21.3736C75.3499 20.3579 74.6062 18.8564 74.4182 16.855H93.4504C93.5242 16.3593 93.5716 15.8601 93.5924 15.3594C93.6104 14.8876 93.6204 14.5256 93.6204 14.2577C93.6339 12.3745 93.3574 10.5004 92.8006 8.7014ZM86.9544 11.6365H74.3582C74.4772 10.6772 74.7735 9.74834 75.232 8.89734C75.7255 7.99209 76.4588 7.24025 77.3513 6.72408C78.2937 6.15891 79.4607 5.87629 80.8523 5.87629C81.7089 5.86195 82.5609 6.00566 83.3655 6.30018C84.0747 6.56648 84.7193 6.98008 85.2569 7.51378C85.7833 8.04188 86.2052 8.66463 86.5005 9.34925C86.8031 10.054 86.9569 10.8137 86.9524 11.5806L86.9544 11.6365Z" fill="black"/>
<path d="M134.934 5.62236C134.25 4.00027 133.125 2.60202 131.687 1.5856C130.22 0.535918 128.298 0.00404923 125.927 0.00404923C124.376 -0.000328223 122.843 0.336875 121.437 0.991737C120.057 1.64154 118.837 2.69922 117.784 4.19076C117.662 3.99082 117.536 3.79096 117.398 3.61701C116.529 2.3849 115.337 1.41635 113.953 0.817864C112.627 0.273792 111.207 -0.00413721 109.774 4.65405e-05C108.808 0.00311843 107.847 0.145908 106.921 0.423941C105.922 0.727349 104.986 1.20527 104.154 1.83552C103.291 2.50054 102.57 3.33295 102.036 4.28282V0.563937H94.9766V28.4114H102.03V14.3537C102.03 12.4703 102.238 10.9247 102.652 9.71711C103.067 8.50947 103.679 7.60574 104.488 7.00592C105.351 6.38888 106.392 6.07146 107.453 6.10219C108.92 6.10219 110.042 6.63406 110.814 7.68374C111.586 8.73342 111.971 10.3209 111.971 12.4283V28.4114H118.969V14.3537C118.969 12.4703 119.169 10.9247 119.569 9.71711C119.969 8.50947 120.562 7.60574 121.349 7.00592C122.181 6.39207 123.194 6.07397 124.228 6.10219C125.321 6.10219 126.205 6.35215 126.883 6.838C127.606 7.3914 128.147 8.14826 128.436 9.01136C128.794 9.97107 128.972 11.1526 128.972 12.5422V28.4114H135.97V10.8467C135.983 9.05301 135.631 7.27543 134.934 5.62236Z" fill="black"/>
<path d="M190.322 2.73922C188.535 0.949099 186.06 0.0547198 182.896 0.0560528C181.584 0.0553602 180.282 0.294508 179.056 0.761795C177.804 1.2374 176.681 2.00194 175.781 2.99315C175.392 3.41373 175.051 3.87572 174.763 4.37075V0.619846H167.703V28.4654H174.763V15.1354C174.763 13.0254 174.989 11.312 175.441 9.99502C175.893 8.67809 176.559 7.70904 177.44 7.0879C178.324 6.46542 179.444 6.15482 180.801 6.15615C182.571 6.15615 183.87 6.69271 184.698 7.76572C185.526 8.83872 185.94 10.5422 185.94 12.8762V28.4714H192.999V10.277C192.999 7.04195 192.107 4.52934 190.322 2.73922Z" fill="black"/>
<path d="M212.519 0.624002L205.853 19.3183L199.303 0.624002H191.621L202.126 26.3322L196.478 40H204.103L220.086 0.634058L212.519 0.624002Z" fill="black"/>
<path d="M154.37 8.39142C153.534 8.53844 152.686 8.61266 151.837 8.61333C150.987 8.61241 150.139 8.53881 149.302 8.39337C148.498 8.2496 147.707 8.03831 146.939 7.76163C145.673 7.31051 144.478 6.68313 143.388 5.89814C143.149 5.73019 142.918 5.5536 142.696 5.36832C142.306 5.05533 141.933 4.72161 141.578 4.36862L141.69 4.25665L142.702 3.24494L145.745 0.203878L145.945 0.00393867C145.971 0.0319301 145.999 0.0580003 146.027 0.0839924C146.312 0.36244 146.616 0.619636 146.939 0.85368C148.332 1.87459 150.01 2.43389 151.737 2.45319H151.963C152.179 3.77714 152.579 5.06455 153.151 6.2781C153.497 7.01561 153.905 7.72254 154.37 8.39142Z" fill="#FF611C"/>
<path d="M157.956 17.0428C157.809 16.2064 157.735 15.3588 157.734 14.5096C157.735 13.6598 157.809 12.8116 157.954 11.9743C158.098 11.1702 158.31 10.3797 158.586 9.61106C159.037 8.34571 159.665 7.15024 160.45 6.06009C160.617 5.82416 160.793 5.59224 160.979 5.36831C161.292 4.97814 161.626 4.60508 161.979 4.25068L162.091 4.36266L163.103 5.37632L166.146 8.41738L166.346 8.61732L166.266 8.69933C165.987 8.98434 165.73 9.28973 165.496 9.61301C164.476 11.0066 163.916 12.6844 163.896 14.4116C163.896 14.4475 163.896 14.4855 163.896 14.5235C163.896 14.5615 163.896 14.5995 163.896 14.6375C162.573 14.8549 161.287 15.2546 160.074 15.8252C159.335 16.1708 158.627 16.5781 157.956 17.0428Z" fill="#FF611C"/>
<path d="M149.305 20.6297C150.141 20.4817 150.989 20.4075 151.838 20.4078C152.688 20.4077 153.536 20.4813 154.373 20.6278C155.178 20.7702 155.969 20.9808 156.738 21.2576C158.003 21.7091 159.198 22.3364 160.287 23.1209C160.525 23.2889 160.755 23.4668 160.979 23.6508C161.368 23.9649 161.741 24.2986 162.097 24.6505L161.985 24.7624L160.973 25.7741L157.93 28.8173L157.73 29.0172L157.648 28.9371C157.363 28.6587 157.059 28.4015 156.736 28.1675C155.345 27.1494 153.672 26.5903 151.948 26.5679H151.72C151.503 25.2447 151.104 23.958 150.532 22.7451C150.184 22.0062 149.774 21.2985 149.305 20.6297Z" fill="#FF611C"/>
<path d="M145.725 11.9745C145.872 12.8116 145.947 13.6599 145.947 14.5098C145.946 15.3589 145.873 16.2064 145.727 17.043C145.583 17.8477 145.372 18.639 145.096 19.4083C144.644 20.673 144.017 21.8678 143.232 22.9572C143.064 23.1958 142.888 23.4264 142.702 23.649C142.39 24.0396 142.056 24.4127 141.703 24.7666L141.591 24.6546L140.579 23.6429L137.536 20.5999L137.336 20.4C137.362 20.372 137.39 20.346 137.416 20.316C137.694 20.0313 137.952 19.7265 138.186 19.4043C139.204 18.0133 139.763 16.3394 139.785 14.6157C139.785 14.5777 139.785 14.5397 139.785 14.5037C139.785 14.4677 139.785 14.4258 139.785 14.3898C141.109 14.1726 142.395 13.7722 143.608 13.2001C144.347 12.8527 145.056 12.4427 145.725 11.9745Z" fill="#FF611C"/>
<path d="M149.301 8.39348C148.814 9.08874 148.267 9.74038 147.667 10.3409C147.067 10.942 146.415 11.4886 145.718 11.9744C145.047 12.4459 144.338 12.8586 143.596 13.208C142.383 13.7836 141.096 14.1873 139.772 14.4077C139.488 14.453 139.202 14.491 138.914 14.5217C138.413 14.5736 137.91 14.5996 137.406 14.5996V8.43155H137.522C137.924 8.42871 138.325 8.39529 138.722 8.33158C140.423 8.06412 141.999 7.27456 143.232 6.07221C143.258 6.04622 143.286 6.02025 143.312 5.99226C143.338 5.96427 143.366 5.93624 143.394 5.91025C144.485 6.69524 145.68 7.32263 146.945 7.77375C147.712 8.04592 148.5 8.25317 149.301 8.39348Z" fill="#FBC80B"/>
<path d="M151.916 28.9312H145.748C145.748 28.8912 145.748 28.8552 145.748 28.8152C145.744 28.4134 145.71 28.0124 145.648 27.6155C145.38 25.9142 144.591 24.338 143.389 23.1049L143.309 23.0249C143.283 22.997 143.253 22.9709 143.227 22.9429C144.011 21.854 144.638 20.66 145.09 19.3961C145.367 18.627 145.578 17.8357 145.72 17.0308C146.416 17.5179 147.069 18.0652 147.669 18.6663C148.27 19.2664 148.816 19.918 149.303 20.6137C149.775 21.2833 150.187 21.9931 150.534 22.735C151.11 23.9474 151.514 25.234 151.734 26.5579C151.778 26.8398 151.818 27.1257 151.848 27.4096C151.888 27.9315 151.916 28.4353 151.916 28.9312Z" fill="#FBC80B"/>
<path d="M166.272 14.4318V20.5999H166.154C165.752 20.6037 165.351 20.6371 164.954 20.6999C163.253 20.9667 161.677 21.7555 160.443 22.9572L160.363 23.0372C160.335 23.0632 160.309 23.0932 160.281 23.1192C159.191 22.3354 157.997 21.7081 156.732 21.2557C155.963 20.9787 155.172 20.7681 154.367 20.6259C154.854 19.9302 155.4 19.2787 156.001 18.6785C156.602 18.0785 157.255 17.5313 157.95 17.043C158.622 16.5745 159.333 16.1633 160.073 15.8134C161.287 15.2428 162.573 14.8432 163.896 14.6258C164.18 14.5778 164.468 14.5397 164.754 14.5117C165.258 14.4588 165.765 14.4321 166.272 14.4318Z" fill="#FBC80B"/>
<path d="M160.453 6.06221C159.668 7.15191 159.041 8.3466 158.59 9.61113C158.313 10.3798 158.102 11.1703 157.958 11.9744C157.263 11.4866 156.612 10.9387 156.012 10.3369C155.412 9.73616 154.865 9.08385 154.379 8.38748C153.909 7.71647 153.497 7.00683 153.147 6.26615C152.575 5.0526 152.176 3.76519 151.96 2.44124C151.914 2.16133 151.876 1.87947 151.848 1.59755C151.793 1.0942 151.766 0.588282 151.766 0.0820007H157.934C157.934 0.119989 157.934 0.159993 157.934 0.197981C157.938 0.596432 157.971 0.994074 158.034 1.38766C158.3 3.08909 159.089 4.66548 160.291 5.8982C160.319 5.92419 160.345 5.95421 160.373 5.9802C160.401 6.0062 160.427 6.03422 160.453 6.06221Z" fill="#FBC80B"/>
</svg>
