<?xml version="1.0" encoding="UTF-8"?>
<svg id="Layer_2" data-name="Layer 2" xmlns="http://www.w3.org/2000/svg" viewBox="0 0 600 600">
  <g id="Layer_1-2" data-name="Layer 1">
    <g>
      <path d="M352.39,173.47c-17.03,3-34.52,4.59-52.41,4.59s-35.38-1.59-52.41-4.55c-16.81-3-33.15-7.38-48.89-13.04-26.42-9.44-51.08-22.47-73.42-38.55-4.89-3.47-9.65-7.12-14.28-10.93-8.06-6.52-15.78-13.47-23.11-20.8l2.32-2.32,20.93-20.93L174.03,4.03l4.03-4.03c.56,.56,1.12,1.11,1.72,1.67,5.87,5.75,12.18,11.06,18.87,15.91,27.88,20.33,62.05,32.46,99.02,32.93,.77,.04,1.54,.04,2.32,.04s1.59,0,2.36-.04c4.46,27.15,12.65,53.78,24.57,79.08,7.16,15.18,15.65,29.85,25.47,43.87Z" style="fill: #ff611c;"/>
      <path d="M426.53,352.38c-3-17.03-4.59-34.52-4.59-52.41s1.59-35.38,4.55-52.41c3-16.81,7.38-33.15,13.04-48.89,9.44-26.42,22.47-51.08,38.55-73.42,3.47-4.89,7.12-9.65,10.93-14.28,6.52-8.06,13.47-15.78,20.8-23.11l2.32,2.32,20.93,20.93,62.91,62.91,4.03,4.03c-.56,.56-1.11,1.12-1.67,1.72-5.75,5.87-11.06,12.18-15.91,18.87-20.33,27.88-32.46,62.05-32.93,99.02-.04,.77-.04,1.54-.04,2.32s0,1.59,.04,2.36c-27.15,4.46-53.78,12.65-79.08,24.57-15.18,7.16-29.85,15.65-43.87,25.47Z" style="fill: #ff611c;"/>
      <path d="M247.57,426.53c17.03-3,34.52-4.59,52.41-4.59,17.88,0,35.38,1.59,52.41,4.55,16.81,3,33.15,7.38,48.89,13.04,26.42,9.44,51.08,22.47,73.42,38.55,4.89,3.47,9.65,7.12,14.28,10.93,8.06,6.52,15.78,13.47,23.11,20.8l-2.32,2.32-20.93,20.93-62.91,62.91-4.03,4.03c-.56-.56-1.12-1.11-1.72-1.67-5.87-5.75-12.18-11.06-18.87-15.91-27.88-20.33-62.05-32.46-99.02-32.93-.77-.04-1.54-.04-2.32-.04-.77,0-1.59,0-2.36,.04-4.46-27.15-12.65-53.78-24.57-79.08-7.16-15.18-15.65-29.85-25.47-43.87Z" style="fill: #ff611c;"/>
      <path d="M173.47,247.57c3,17.03,4.59,34.52,4.59,52.41,0,17.88-1.59,35.38-4.55,52.41-3,16.81-7.38,33.15-13.04,48.89-9.44,26.42-22.47,51.08-38.55,73.42-3.47,4.89-7.12,9.65-10.93,14.28-6.52,8.06-13.47,15.78-20.8,23.11l-2.32-2.32-20.93-20.93L4.03,425.93l-4.03-4.03c.56-.56,1.11-1.12,1.67-1.72,5.75-5.87,11.06-12.18,15.91-18.87,20.33-27.88,32.46-62.05,32.93-99.02,.04-.77,.04-1.54,.04-2.32s0-1.59-.04-2.36c27.15-4.46,53.78-12.65,79.08-24.57,15.18-7.16,29.85-15.65,43.87-25.47Z" style="fill: #ff611c;"/>
      <path d="M247.57,173.51c-9.91,14.15-21.14,27.62-33.79,40.27-12.65,12.65-26.16,23.93-40.31,33.79-14.02,9.86-28.69,18.35-43.87,25.52-25.3,11.92-51.93,20.11-79.08,24.58-5.88,.98-11.79,1.76-17.71,2.36-10.38,1.07-20.76,1.63-31.18,1.63v-127.54c.81,0,1.59,0,2.4-.04,8.23-.09,16.47-.77,24.62-2.06,34.05-5.4,66.81-20.97,93.27-46.74,.56-.52,1.12-1.07,1.67-1.63,.56-.56,1.12-1.16,1.67-1.72,22.34,16.08,47,29.12,73.42,38.55,15.74,5.66,32.08,10.03,48.89,13.04Z" style="fill: #fbc80b;"/>
      <path d="M301.65,598.37h-127.54c0-.81,0-1.59-.04-2.4-.09-8.23-.77-16.47-2.06-24.61-5.4-34.05-20.97-66.81-46.74-93.27-.52-.56-1.07-1.12-1.63-1.67-.56-.56-1.16-1.11-1.71-1.67,16.08-22.34,29.12-47,38.55-73.38,5.66-15.74,10.04-32.03,12.99-48.89,14.15,9.86,27.66,21.14,40.31,33.79,12.65,12.65,23.89,26.12,33.79,40.27,9.86,14.02,18.36,28.69,25.47,43.87h.04c11.92,25.3,20.11,51.93,24.57,79.08,.94,5.83,1.76,11.71,2.36,17.58v.17c1.07,10.33,1.63,20.71,1.63,31.13Z" style="fill: #fbc80b;"/>
      <path d="M598.37,298.39v127.54c-.82,0-1.63,0-2.44,.04-8.23,.09-16.43,.77-24.57,2.06-34.05,5.36-66.81,20.93-93.27,46.7-.56,.52-1.11,1.07-1.67,1.63-.56,.56-1.12,1.16-1.67,1.71-22.39-16.08-47.05-29.12-73.42-38.55-15.74-5.66-32.03-10.03-48.89-13.04,9.91-14.15,21.14-27.62,33.79-40.27,12.65-12.61,26.16-23.89,40.31-33.79v-.04c14.02-9.78,28.69-18.27,43.87-25.43,25.3-11.92,51.93-20.11,79.08-24.57,5.87-.99,11.79-1.76,17.71-2.36,10.38-1.07,20.76-1.63,31.18-1.63Z" style="fill: #fbc80b;"/>
      <path d="M478.08,125.31c-16.08,22.34-29.12,47-38.55,73.38-5.66,15.74-10.04,32.08-13.04,48.89-14.15-9.91-27.62-21.14-40.27-33.79-12.65-12.65-23.93-26.16-33.79-40.31h-.04c-9.82-14.02-18.31-28.69-25.47-43.87-11.92-25.3-20.11-51.93-24.57-79.08-.94-5.79-1.71-11.62-2.31-17.45,0,0-.04-.04,0-.09-1.12-10.38-1.67-20.84-1.67-31.31h127.54c0,.77,0,1.59,.04,2.36,.09,8.23,.77,16.47,2.06,24.61,5.36,34.05,20.93,66.77,46.7,93.27,.56,.56,1.12,1.16,1.67,1.72,.56,.56,1.16,1.11,1.71,1.67Z" style="fill: #fbc80b;"/>
    </g>
  </g>
</svg>