<?xml version="1.0" encoding="UTF-8"?>
<svg id="Layer_2" data-name="Layer 2" xmlns="http://www.w3.org/2000/svg" viewBox="0 0 770.54 140">
  <g id="Layer_1-2" data-name="Layer 1">
    <g>
      <path d="M41.73,101.46c-7.25,0-13.58-1.06-18.98-3.16-5.41-2.11-9.99-4.75-13.74-7.91-3.76-3.16-6.76-6.19-9-9.1l16.81-14.63c2.24,3.69,5.44,7.09,9.59,10.18,4.15,3.1,9.33,4.65,15.52,4.65,4.88,0,8.67-.96,11.37-2.87,2.7-1.91,4.05-4.32,4.05-7.22,0-2.37-.86-4.32-2.57-5.83-1.71-1.51-4.02-2.77-6.92-3.76-2.9-.99-6.13-1.94-9.69-2.87-3.69-1.05-7.51-2.24-11.47-3.56-3.95-1.32-7.58-3.07-10.88-5.24-3.3-2.17-5.97-4.97-8.01-8.41-2.05-3.42-3.06-7.71-3.06-12.85,0-8.57,3.36-15.52,10.08-20.86C21.56,2.67,30.46,0,41.53,0,49.31,0,56.36,1.55,62.69,4.65c6.33,3.1,11.34,7.55,15.03,13.35l-15.23,12.06c-2.37-3.82-5.51-6.69-9.39-8.6-3.89-1.91-8.01-2.87-12.36-2.87-3.83,0-6.96,.73-9.39,2.18-2.44,1.45-3.66,3.43-3.66,5.93,0,1.72,.56,3.16,1.68,4.35,1.12,1.19,2.97,2.21,5.54,3.07,2.57,.86,5.96,1.81,10.18,2.87,3.96,.92,8.04,2.04,12.26,3.36,4.22,1.32,8.17,3.1,11.86,5.34,3.69,2.24,6.66,5.21,8.9,8.9,2.24,3.69,3.36,8.37,3.36,14.04,0,6.46-1.65,12.16-4.94,17.11-3.3,4.94-7.91,8.8-13.84,11.57-5.93,2.77-12.92,4.15-20.96,4.15Z" style="fill: #fff;"/>
      <path d="M175.09,30.45c-1.91-6.05-4.73-11.37-8.4-15.92-3.69-4.55-8.39-8.11-14.04-10.68C146.98,1.29,140.31,0,132.68,0,124.49,0,117.47,1.49,111.62,4.45c-5.88,2.97-10.66,6.9-14.34,11.77-3.71,4.88-6.46,10.36-8.3,16.41-1.86,6.08-2.77,12.26-2.77,18.59s.91,12.89,2.77,18.88c1.85,6.01,4.71,11.35,8.6,16.02,3.87,4.7,8.87,8.4,14.93,11.17,6.06,2.78,13.31,4.17,21.75,4.17,5.67,0,10.69-.51,15.13-1.5,4.4-.97,8.67-2.59,12.75-4.84,4.07-2.24,8.42-5.14,13.05-8.7l-12.26-16.61c-3.71,3.3-7.91,5.83-12.65,7.63-4.75,1.78-9.62,2.65-14.63,2.65-6.85,0-12.56-1.78-17.1-5.34-4.55-3.56-7.15-8.82-7.81-15.82h66.64c.25-1.83,.41-3.58,.49-5.24,.07-1.65,.1-2.92,.1-3.86,0-6.84-.96-13.3-2.87-19.38Zm-20.47,10.28h-44.09c.4-3.28,1.4-6.49,3.06-9.59,1.65-3.08,4.12-5.64,7.42-7.61,3.28-1.98,7.38-2.97,12.26-2.97,3.28,0,6.23,.49,8.8,1.48,2.57,.99,4.76,2.41,6.62,4.25,1.85,1.86,3.28,3.99,4.35,6.43,1.05,2.46,1.58,5.04,1.58,7.81v.2Z" style="fill: #fff;"/>
      <path d="M242.9,1.29C239.93,.43,236.8,0,233.51,0c-4.61,0-9.13,1.22-13.54,3.66-4.42,2.44-8.14,5.83-11.17,10.18-.51,.73-.97,1.47-1.38,2.22V1.98h-24.72V99.46h24.72V57.54c0-5.4,.16-9.52,.49-12.36,.33-2.83,.76-5.17,1.29-7.02,1.19-3.3,2.74-5.93,4.65-7.91,1.91-1.98,4.09-3.43,6.53-4.35,2.44-.92,4.98-1.38,7.61-1.38,2.24,0,4.48,.33,6.72,.99,.49,.15,.97,.3,1.43,.44,1.86-4.53,4.27-8.75,7.17-12.61,2.32-3.07,5.06-5.82,8.16-8.19-2.93-1.78-5.78-3.08-8.55-3.87Z" style="fill: #fff;"/>
      <path d="M324.89,30.45c-1.91-6.05-4.71-11.37-8.4-15.92-3.69-4.55-8.37-8.11-14.04-10.68C296.78,1.29,290.12,0,282.48,0c-8.17,0-15.19,1.48-21.06,4.45-5.87,2.97-10.64,6.9-14.34,11.77-3.69,4.88-6.46,10.36-8.3,16.41-1.85,6.08-2.77,12.26-2.77,18.59s.92,12.89,2.77,18.88c1.85,6.01,4.71,11.35,8.6,16.02,3.89,4.7,8.87,8.4,14.93,11.17,6.06,2.78,13.31,4.17,21.75,4.17,5.67,0,10.71-.51,15.13-1.5,4.42-.97,8.67-2.59,12.75-4.84,4.09-2.24,8.44-5.14,13.05-8.7l-12.26-16.61c-3.69,3.3-7.91,5.83-12.65,7.63-4.75,1.78-9.62,2.65-14.63,2.65-6.85,0-12.56-1.78-17.1-5.34-4.55-3.56-7.15-8.82-7.81-15.82h66.64c.26-1.83,.43-3.58,.49-5.24,.07-1.65,.1-2.92,.1-3.86,0-6.84-.96-13.3-2.87-19.38Zm-20.47,10.28h-44.09c.4-3.28,1.42-6.49,3.06-9.59,1.65-3.08,4.12-5.64,7.42-7.61,3.3-1.98,7.38-2.97,12.26-2.97,3.3,0,6.23,.49,8.8,1.48,2.57,.99,4.78,2.41,6.62,4.25,1.85,1.86,3.3,3.99,4.35,6.43,1.05,2.46,1.58,5.04,1.58,7.81v.2Z" style="fill: #fff;"/>
      <path d="M472.4,19.68c-2.44-5.73-6.23-10.43-11.37-14.14C455.89,1.87,449.17,0,440.86,0c-5.54,0-10.78,1.17-15.72,3.46-4.83,2.27-9.1,5.98-12.79,11.2-.43-.69-.87-1.37-1.35-2.01-3.43-4.61-7.45-7.88-12.06-9.79C394.33,.98,389.45,0,384.31,0c-3.3,0-6.62,.49-9.99,1.48-3.36,.99-6.59,2.65-9.69,4.94-2.83,2.11-5.31,4.98-7.42,8.57V1.98h-24.72V99.46h24.72V50.25c0-6.59,.73-12,2.18-16.23,1.45-4.2,3.59-7.37,6.43-9.49,2.83-2.09,6.29-3.16,10.38-3.16,5.14,0,9.06,1.86,11.77,5.54,2.7,3.71,4.05,9.23,4.05,16.61v55.96h24.52V50.25c0-6.59,.69-12,2.08-16.23,1.38-4.2,3.46-7.37,6.23-9.49,2.77-2.09,6.13-3.16,10.08-3.16s6.92,.87,9.29,2.57c2.37,1.73,4.19,4.25,5.44,7.61,1.25,3.36,1.88,7.5,1.88,12.36v55.56h24.52V37.97c0-6.44-1.22-12.56-3.66-18.29Z" style="fill: #fff;"/>
      <path d="M666.33,9.59c-6.26-6.26-14.93-9.39-26-9.39-4.61,0-9.1,.82-13.45,2.47-4.35,1.65-8.17,4.25-11.47,7.81-1.32,1.42-2.5,3.03-3.56,4.83V2.18h-24.72V99.66h24.72V53c0-7.38,.79-13.38,2.37-17.99,1.58-4.61,3.92-8.01,7.02-10.18,3.1-2.18,7.02-3.26,11.77-3.26,6.2,0,10.74,1.88,13.64,5.64,2.9,3.76,4.35,9.72,4.35,17.9v54.57h24.72V35.99c0-11.34-3.13-20.14-9.39-26.4Z" style="fill: #fff;"/>
      <path d="M744.04,2.18l-23.33,65.45L697.77,2.18h-26.89l36.78,89.97-19.77,47.85h26.69L770.54,2.18h-26.5Z" style="fill: #fff;"/>
      <g>
        <path d="M540.47,29.37c-2.88,.51-5.84,.78-8.87,.78s-5.99-.27-8.87-.77c-2.85-.51-5.61-1.25-8.28-2.21-4.47-1.6-8.65-3.8-12.43-6.53-.83-.59-1.63-1.21-2.42-1.85-1.37-1.1-2.67-2.28-3.91-3.52l.39-.39,3.54-3.54,10.65-10.65,.68-.68c.09,.09,.19,.19,.29,.28,.99,.97,2.06,1.87,3.19,2.69,4.72,3.44,10.51,5.5,16.77,5.58,.13,0,.26,0,.39,0s.27,0,.4,0c.76,4.6,2.14,9.11,4.16,13.39,1.21,2.57,2.65,5.05,4.31,7.43Z" style="fill: #fff;"/>
        <path d="M553.02,59.66c-.51-2.88-.78-5.84-.78-8.87s.27-5.99,.77-8.87c.51-2.85,1.25-5.61,2.21-8.28,1.6-4.47,3.8-8.65,6.53-12.43,.59-.83,1.21-1.63,1.85-2.42,1.1-1.37,2.28-2.67,3.52-3.91l.39,.39,3.54,3.54,10.65,10.65,.68,.68c-.09,.09-.19,.19-.28,.29-.97,.99-1.87,2.06-2.69,3.19-3.44,4.72-5.5,10.51-5.58,16.77,0,.13,0,.26,0,.39s0,.27,0,.4c-4.6,.76-9.11,2.14-13.39,4.16-2.57,1.21-5.05,2.65-7.43,4.31Z" style="fill: #fff;"/>
        <path d="M522.72,72.22c2.88-.51,5.84-.78,8.87-.78,3.03,0,5.99,.27,8.87,.77,2.85,.51,5.61,1.25,8.28,2.21,4.47,1.6,8.65,3.8,12.43,6.53,.83,.59,1.63,1.21,2.42,1.85,1.37,1.1,2.67,2.28,3.91,3.52l-.39,.39-3.54,3.54-10.65,10.65-.68,.68c-.09-.09-.19-.19-.29-.28-.99-.97-2.06-1.87-3.19-2.69-4.72-3.44-10.51-5.5-16.77-5.58-.13,0-.26,0-.39,0s-.27,0-.4,0c-.76-4.6-2.14-9.11-4.16-13.39-1.21-2.57-2.65-5.05-4.31-7.43Z" style="fill: #fff;"/>
        <path d="M510.18,41.92c.51,2.88,.78,5.84,.78,8.87,0,3.03-.27,5.99-.77,8.87-.51,2.85-1.25,5.61-2.21,8.28-1.6,4.47-3.8,8.65-6.53,12.43-.59,.83-1.21,1.63-1.85,2.42-1.1,1.37-2.28,2.67-3.52,3.91l-.39-.39-3.54-3.54-10.65-10.65-.68-.68c.09-.09,.19-.19,.28-.29,.97-.99,1.87-2.06,2.69-3.19,3.44-4.72,5.5-10.51,5.58-16.77,0-.13,0-.26,0-.39s0-.27,0-.4c4.6-.76,9.11-2.14,13.39-4.16,2.57-1.21,5.05-2.65,7.43-4.31Z" style="fill: #fff;"/>
        <g style="opacity: .5;">
          <path d="M522.72,29.38c-1.68,2.4-3.58,4.68-5.72,6.82-2.14,2.14-4.43,4.05-6.83,5.72-2.37,1.67-4.86,3.11-7.43,4.32-4.28,2.02-8.79,3.41-13.39,4.16-.99,.17-2,.3-3,.4-1.76,.18-3.51,.28-5.28,.28V29.48c.14,0,.27,0,.41,0,1.39-.01,2.79-.13,4.17-.35,5.77-.91,11.31-3.55,15.79-7.91,.09-.09,.19-.18,.28-.28,.09-.09,.19-.2,.28-.29,3.78,2.72,7.96,4.93,12.43,6.53,2.66,.96,5.43,1.7,8.28,2.21Z" style="fill: #fff;"/>
        </g>
        <g style="opacity: .5;">
          <path d="M531.88,101.31h-21.59c0-.14,0-.27,0-.41-.01-1.39-.13-2.79-.35-4.17-.91-5.77-3.55-11.31-7.91-15.79-.09-.09-.18-.19-.28-.28-.09-.09-.2-.19-.29-.28,2.72-3.78,4.93-7.96,6.53-12.42,.96-2.66,1.7-5.42,2.2-8.28,2.4,1.67,4.68,3.58,6.83,5.72,2.14,2.14,4.04,4.42,5.72,6.82,1.67,2.37,3.11,4.86,4.31,7.43h0c2.02,4.28,3.41,8.79,4.16,13.39,.16,.99,.3,1.98,.4,2.98h0v.03c.18,1.75,.28,3.51,.28,5.27Z" style="fill: #fff;"/>
        </g>
        <g style="opacity: .5;">
          <path d="M582.12,50.52v21.59c-.14,0-.28,0-.41,0-1.39,.01-2.78,.13-4.16,.35-5.77,.91-11.31,3.54-15.79,7.91-.09,.09-.19,.18-.28,.28-.09,.09-.19,.2-.28,.29-3.79-2.72-7.97-4.93-12.43-6.53-2.66-.96-5.42-1.7-8.28-2.21,1.68-2.4,3.58-4.68,5.72-6.82,2.14-2.13,4.43-4.04,6.83-5.72h0c2.37-1.66,4.86-3.1,7.43-4.31,4.28-2.02,8.79-3.41,13.39-4.16,.99-.17,2-.3,3-.4,1.76-.18,3.51-.28,5.28-.28Z" style="fill: #fff;"/>
        </g>
        <g style="opacity: .5;">
          <path d="M561.75,21.22c-2.72,3.78-4.93,7.96-6.53,12.42-.96,2.66-1.7,5.43-2.21,8.28-2.4-1.68-4.68-3.58-6.82-5.72-2.14-2.14-4.05-4.43-5.72-6.83h0c-1.66-2.37-3.1-4.86-4.31-7.43-2.02-4.28-3.41-8.79-4.16-13.39-.16-.98-.29-1.97-.39-2.96,0,0,0,0,0-.01-.19-1.76-.28-3.53-.28-5.3h21.59c0,.13,0,.27,0,.4,.01,1.39,.13,2.79,.35,4.17,.91,5.77,3.54,11.31,7.91,15.79,.09,.09,.19,.2,.28,.29,.09,.09,.2,.19,.29,.28Z" style="fill: #fff;"/>
        </g>
      </g>
    </g>
  </g>
</svg>