<?xml version="1.0" encoding="utf-8"?>
<!-- Generator: Adobe Adobe Illustrator 24.2.0, SVG Export Plug-In . SVG Version: 6.00 Build 0)  -->
<svg version="1.1" id="Layer_1" xmlns="http://www.w3.org/2000/svg" xmlns:xlink="http://www.w3.org/1999/xlink" x="0px" y="0px"
	 width="1113.06px" height="1071.48px" viewBox="0 0 1113.06 1071.48" style="enable-background:new 0 0 1113.06 1071.48;"
	 xml:space="preserve">
<style type="text/css">
	.st0{fill:#FFFFFF;}
	.st1{fill:#F1592A;}
	.st2{fill:#722A17;}
	.st3{fill:#010101;}
	.st4{fill:#EE5B2E;}
	.st5{fill:#F05A2C;}
	.st6{fill:#732D1B;}
	.st7{fill:#732C1A;}
	.st8{fill:#995746;}
	.st9{fill:#FEFEFE;}
	.st10{fill:#FCFBFB;}
	.st11{fill:#FCFAFA;}
</style>
<g>
	<path class="st1" d="M912.98,0c4.87,0.84,9.46,1.6,14.01,2.54c47.04,9.69,83.43,47.69,91.19,95.04
		c2.95,17.97,1.71,35.61-3.46,53.03c-0.18,0.6-0.34,1.2-0.56,1.98c36.15,6.42,64.08,24.98,82.83,56.55
		c14.4,24.24,18.96,50.6,14.35,78.37c-3.79,22.88-13.7,42.93-29.59,59.9c-15.95,17.03-35.3,28.24-57.91,33.97
		c-22.55,5.72-44.8,3.34-67.18-2.68c-8.12,36.91-13.97,73.51-12.94,111.3c-1.11-0.54-1.86-0.83-2.55-1.24
		c-44.89-27-89.09-55.04-131.03-86.52c-16.34-12.26-32.38-24.92-46.18-40.09c-4.21-4.63-7.9-9.84-11.2-15.18
		c-1.84-2.99-2.38-6.78-3.73-10.92c-4.83-1.03-10.71-2.09-16.49-3.54c-47.17-11.83-77.5-41.38-88.6-88.55
		c-14.36-61.02,23.01-121.7,83.37-137.99c19.35-5.23,38.79-5.56,58.25-0.47c0.3,0.08,0.63,0.06,1.35,0.11
		c0.59-3.64,1.03-7.35,1.82-10.98c9.19-42.75,34.33-71.89,74.99-87.69c9.15-3.56,18.74-5.41,28.6-6.7C899.18,0,905.93,0,912.98,0z"
		/>
	<path class="st2" d="M0,903.39c0.42-3.43,0.89-6.57,1.25-9.71c5.07-44.19,17.81-85.88,41.23-123.89
		c4.63-7.51,10.79-14.21,16.91-20.65c9.72-10.22,21.97-10.39,34.54-6.83c22.6,6.4,35,22.24,40.57,44.37
		c2.57,10.21,1.31,19.61-5.07,28.1c-10.54,14.03-21.03,28.11-31.8,41.98c-13.93,17.94-28.06,35.73-39.15,55.66
		c-5.79,10.4-10.56,21.19-12.56,33.09c-1.79,10.64,1.29,20.15,5.82,29.45c11.17,22.93,29.11,39.06,51.28,50.86
		c21.05,11.21,43.63,17.27,67.28,19.54c6.58,0.63,13.2,0.88,19.87,1.45c-0.46,0.19-0.98,0.24-1.51,0.25
		c-18.92,0.36-37.82,0.23-56.66-1.75c-10.52-1.11-21.03-2.38-31.53-3.69c-5.7-0.71-11.38-1.66-17.06-2.5
		c-7.1-4.31-14.48-8.24-21.26-13.01c-17-11.94-31.17-26.73-41.86-44.6c-9.35-15.63-15.68-32.46-18.34-50.55
		c-0.79-5.35-1.03-10.77-1.74-16.32C0,910.87,0,907.28,0,903.39z M75.44,814.09c0.61-0.41,1.3-0.74,1.82-1.24
		c6.95-6.72,14.05-13.29,20.74-20.26c5.58-5.81,3.4-14.3-4.22-17.1c-7.59-2.79-14.96-1.46-20.38,4.3
		c-6.09,6.47-11.33,13.8-16.54,21.03c-3.24,4.5-1.93,9.2,2.82,12.11C64.52,815.92,69.66,816.63,75.44,814.09z"/>
	<path class="st1" d="M83.53,1039.29c5.58,0.67,11.25,1.61,16.96,2.32c10.5,1.31,21.01,2.58,31.53,3.69
		c18.84,1.98,37.74,2.11,56.66,1.75c0.52-0.01,1.05-0.07,1.8-0.22c12.06-0.98,23.95-1.38,35.71-2.8
		c23.82-2.88,46.48-9.99,68.51-19.49c24.39-10.51,46.57-24.29,65.8-42.64c27.24-26,46.28-57.17,58.32-92.79
		c5.27-15.6,8.33-31.45,7.69-47.96c-0.82-21.12-7.09-40.65-16.98-59.15c-9.65-18.04-22.18-33.92-36.2-48.73
		c-20.74-21.92-44.84-39.67-69.36-56.99c-28.18-19.9-56.52-39.6-84.02-60.4c-13.7-10.36-26.09-22.57-38.36-34.68
		c-18.6-18.36-35.52-38.24-49.76-60.24c-18.15-28.03-30.23-58.46-33.65-91.78c-5.99-58.43,12.41-107.9,56.17-147.5
		c22.49-20.36,49.06-33.72,77.03-44.63c29.3-11.43,59.54-19.33,90.81-22.49c17.53-1.77,35.24-1.85,52.87-2.59
		c3.03-0.13,6.08,0.27,9.61,0.62c7.24,0.85,14.01,1.29,20.72,2.19c8.06,1.08,16.06,2.54,24.34,3.87c4.57,1.1,8.93,2.05,13.21,3.27
		c2.93,0.84,5.74,2.06,8.61,3.12c-5.55-1.09-11.07-2.78-16.67-3.13c-9.83-0.62-19.76-1.17-29.55-0.43
		c-28.84,2.19-56,10.57-81.76,23.7c-51.08,26.04-80.72,68.23-93.12,123.45c-4.26,18.96-2.11,37.76,0.86,56.7
		c4,25.44,16.4,46.4,32.09,66.1c16.33,20.5,35.39,38.11,56.17,53.76c19.81,14.92,40.45,28.72,60.77,42.95
		c26.86,18.82,54.17,37.05,80.52,56.57c20.19,14.95,38.99,31.77,55.94,50.43c19.29,21.22,31.17,46.11,35.9,74.49
		c3.18,19.05,5.06,38.17,4.15,57.47c-2.58,54.57-23.47,101.21-61.23,140.42c-34.14,35.45-75.49,59.64-121.08,77.09
		c-29.94,11.45-60.89,18.95-92.63,23.31c-24.87,3.42-49.9,4.2-74.92,3.14c-12.76-0.54-25.47-2.55-38.16-4.23
		c-18.92-2.51-37.36-7.22-55.17-14.01C103.44,1048.91,93.63,1043.94,83.53,1039.29z"/>
	<path class="st3" d="M929.9,908.35c-31.21,28.22-65.35,51.83-102.5,71.05c-41.57,21.51-85.36,36.65-131.32,45.43
		c-33.78,6.45-67.88,9.19-102.28,8.48c-36.72-0.77-72.88-5.58-108.49-14.55c-0.81-0.2-1.61-0.45-2.79-0.77
		c2.98-2.38,5.86-4.41,8.43-6.78c10.42-9.64,20.77-19.35,31.06-29.13c1.25-1.19,2.18-1.72,4.03-1.39
		c30.21,5.45,60.66,7.91,91.35,6.96c44.94-1.39,88.73-9.24,131.21-24.04c60.09-20.94,113.34-53.25,159.33-97.23
		c61.67-58.97,103.14-129.9,124.05-212.72c7.67-30.38,11.79-61.27,12.8-92.61c1.62-50.08-5.11-98.97-20.06-146.76
		c-0.12-0.39-0.18-0.8-0.3-1.36c14.99-2.98,29.13-8.11,42.47-15.41C1114.92,537.14,1100.32,753.43,929.9,908.35z"/>
	<path class="st2" d="M810.05,581.08c13.09,7.6,26.03,15.01,38.89,22.56c9.14,5.37,16.69,12.48,21.84,21.82
		c8.15,14.77,5.78,34.52-5.74,48.81c-9.75,12.1-22.76,19.42-37.06,24.67c-14.92,5.49-30.37,8.15-46.27,8.44
		c-15.92,0.29-31.45-1.59-46.16-8.05c-8.61-3.78-16.07-9.13-21.12-16.88c-6.11,4.56-11.94,9.35-18.2,13.48
		c-8.68,5.72-18.22,9.43-28.64,10.76c-20.44,2.61-35.92-7.79-41.07-27.76c-0.52-2-0.97-4.02-1.52-6.33
		c-7.39,8.69-15.41,16.36-24.86,22.42c-10.04,6.45-20.79,11.13-32.8,12.02c-19.94,1.48-34.46-9.44-39.26-29.37
		c-3.47-14.41-2.49-28.87,0.32-43.21c8-40.85,16.2-81.66,24.32-122.48c0.16-0.82,0.41-1.63,0.65-2.59c17.56,0,35.1,0,53.12,0
		c-0.78,4.27-1.5,8.45-2.3,12.61c-9.14,47.14-18.33,94.27-27.37,141.43c-0.78,4.09-0.98,8.4-0.7,12.56
		c0.55,7.96,5.66,11.32,12.82,7.96c5.23-2.46,10.23-5.87,14.54-9.73c4.82-4.32,8.69-9.69,13.07-14.5
		c7.9-8.67,9.23-19.69,11.25-30.53c5.7-30.69,11.53-61.34,17.32-92.01c1.58-8.36,3.18-16.73,4.77-25.09c0.17-0.9,0.4-1.8,0.6-2.68
		c17.56,0,34.89,0,52.44,0c-2.45,13.2-4.86,26.2-7.27,39.19c-7.2,38.75-14.48,77.48-21.48,116.26c-0.76,4.23-0.46,8.85,0.33,13.12
		c0.92,5,4.73,7.02,9.71,6.04c7.88-1.55,13.67-6.63,19.49-11.67c3.36-2.91,4.99-6.06,5.38-10.92c1.58-20.12,13.48-33.05,30.97-41.55
		c0.6-0.29,1.75-0.29,2.21,0.09c9.32,7.83,18.57,15.74,27.95,23.73c-4.81,2.07-9.55,3.6-13.74,6.07c-4.56,2.69-9.16,5.73-12.77,9.55
		c-7.42,7.84-5.49,17.87,3.93,23.23c7.07,4.03,14.85,5.19,22.82,5.01c16.42-0.36,30.93-5.63,42.54-17.58
		c2.53-2.61,4.59-5.74,6.52-8.85c4.43-7.15,3.32-14.04-1.57-20.52c-4.95-6.55-11.16-11.76-18.11-15.99
		c-10.12-6.17-20.5-11.92-30.61-18.1c-11.67-7.13-21.13-16.55-28.26-28.31c-11.43-18.85-7.23-40.04,10.94-53.21
		c12.05-8.74,25.82-13.6,40.37-15.92c20.18-3.21,40.26-2.31,59.93,3.53c9.16,2.72,17.32,7.36,24.39,13.96
		c11.66,10.9,14.93,24.42,12.99,39.68c-0.38,2.99-1.07,5.94-1.67,9.18c-14.99-5.31-29.59-10.48-43.59-15.44
		c1.6-6.26,3.72-12.14,4.51-18.2c1.21-9.31-3.5-14.91-12.74-16.69c-10.8-2.09-20.73-0.28-30.12,5.66
		c-4.72,2.99-9.48,5.66-13.15,10.07c-7.16,8.62-5.43,21.71,1.42,27.89C799.16,573.12,804.64,576.89,810.05,581.08z"/>
	<path class="st3" d="M144.14,704.45c-8.58-25.46-15.13-51.18-19.45-77.45c-3.23-19.63-5.36-39.38-6.04-59.28
		c-0.07-2.17-0.01-4.34-0.01-7.08c4.04,4.82,7.57,9.46,11.54,13.69c12.08,12.88,24.37,25.57,36.46,38.45
		c1.31,1.4,2.32,3.47,2.64,5.37c7,41.58,19.41,81.44,37.71,119.45c19.81,41.14,45.39,78.31,76.69,111.53
		c22.81,24.21,48.02,45.61,75.67,64.12c1.21,0.81,2.4,1.62,3.76,2.54c-8.26,13.16-17.82,24.92-29.32,35.79
		c-8.73-6.38-17.59-12.55-26.12-19.16c-59.68-46.22-106.3-103.16-139.79-170.84C158.76,743.14,150.99,724.12,144.14,704.45z"/>
	<path class="st3" d="M286.76,178.87c5.37-4.63,10.58-9.46,16.14-13.85c50.97-40.24,107.63-69.36,170.17-86.91
		c37.07-10.4,74.85-16.19,113.35-17.61c45.89-1.69,91.07,3.03,135.62,14.04c0.29,0.07,0.57,0.18,0.96,0.3
		c-6.26,2.08-12.5,3.89-18.53,6.22c-16.21,6.27-30.83,15.21-43.94,26.64c-0.95,0.83-2.61,1.41-3.84,1.26
		c-25.64-3.06-51.34-3.89-77.11-2.48c-36.46,2.01-72.13,8.47-106.97,19.4c-34.48,10.82-67.14,25.7-97.98,44.58
		c-1.2,0.73-2.68,1.48-4.01,1.45c-27.96-0.61-55.64,2.08-83.12,7.08c-0.1,0.02-0.21,0.03-0.55-0.07
		C286.73,178.84,286.76,178.87,286.76,178.87z"/>
	<path class="st2" d="M451.53,225.03c-2.87-1.06-5.69-2.29-8.62-3.13c-4.28-1.23-8.63-2.18-13.09-3.41
		c0.22-0.27,0.57-0.37,0.92-0.47c11.9,2.97,23.96,5.4,35.66,9.01c29.27,9.04,56.28,22.61,79.99,42.24
		c27.38,22.67,47.54,50.42,57.56,84.81c7.08,24.28,8.42,49.25,6.96,74.4c-0.23,3.88-0.46,7.76-0.72,12.17
		c-30.86-13.72-61.35-27.28-92.02-40.91c1.52-5.84,3.11-11.58,4.5-17.36c4.13-17.13,6.73-34.49,6.41-52.15
		c-0.47-25.39-6.34-49.15-22.39-69.52c-13.16-16.7-30.29-27.58-50.45-33.91c-0.19-0.06-0.35-0.22-0.83-0.64
		c-0.81-0.39-1.33-0.46-1.84-0.54c0,0-0.07,0.03-0.21-0.18c-0.69-0.27-1.25-0.32-1.81-0.37
		C451.57,225.06,451.54,225.04,451.53,225.03z"/>
	<path class="st2" d="M982.88,686.46c-12.38,9.8-25.78,16.98-41.26,19.71c-10.6,1.87-21.01,1.37-30.68-3.85
		c-12.67-6.84-18.25-18.41-20.35-32c-2.22-14.36-0.18-28.48,2.77-42.55c7.55-35.99,15-72,22.49-108c0.6-2.87,1.23-5.73,1.93-8.94
		c16.3,9.58,32.37,19.03,48.6,28.57c-2.45,12.22-4.88,24.36-7.32,36.5c-5.87,29.16-11.79,58.3-17.58,87.48
		c-0.59,2.95-0.67,6.08-0.49,9.1c0.54,9.11,6.1,13.03,15.06,10.84c8.61-2.1,15.7-6.99,22.28-12.61
		c10.86-9.28,19.53-20.24,24.97-33.61c0.35-0.85,1.7-1.78,2.62-1.82c4.3-0.19,8.62-0.09,13.47-0.09
		C1011.76,655.74,999.74,672.67,982.88,686.46z"/>
	<path class="st4" d="M586.02,735.55c7.08-10.59,16.44-17.21,29.24-17.54c13.11-0.34,20.93,8.66,18.74,21.55
		c-0.78,4.55-2.88,8.88-4.37,13.31c-0.38,0-0.76-0.01-1.15-0.01c-2.52-4.04-5.12-8.05-7.49-12.18c-0.35-0.61,0.18-1.96,0.65-2.77
		c1.66-2.88,3.5-5.75,0.97-8.98c-1.68-2.14-5.57-2.36-9.35-0.01c-3.34,2.08-6.73,4.47-9.21,7.47c-7.46,9.03-11.54,19.45-11.07,31.37
		c0.34,8.66,4.6,14.69,12.56,17.99c7.96,3.3,15.92,3.32,23.83-0.35c1.81-0.84,2.2-1.88,2.11-3.89c-0.57-11.55,2.23-22.1,10.19-30.82
		c4.24-4.65,9.8-7.04,15.97-7.25c8.82-0.31,17.65-0.08,26.89-0.08c-1.57,7.55-3.1,14.9-4.64,22.24c-1.27,6.06-2.66,12.1-3.75,18.2
		c-0.24,1.36,0.11,3.36,1,4.23c0.68,0.67,2.87,0.48,4-0.1c5.34-2.72,9.41-6.65,10.68-12.83c1.58-7.71,3.19-15.42,4.76-23.14
		c0.12-0.6,0.08-1.24,0.12-2.1c-1.85-0.12-3.59-0.22-5.35-0.33c1.41-5.9,1.41-5.9,7.05-6.49c0.7-3.41,1.43-6.88,2.12-10.36
		c0.33-1.67,0.95-2.67,2.97-2.93c3.92-0.52,7.79-1.49,12.15-2.37c-1.02,5.41-1.98,10.5-2.99,15.87c2.68,0,5.17,0,7.66,0
		c-0.56,5.62-3.75,7.45-8.89,6.41c-2.36,11.79-4.71,23.19-6.85,34.63c-0.23,1.22,0.31,3.1,1.19,3.85c0.7,0.6,2.76,0.37,3.72-0.25
		c2.35-1.53,4.58-3.33,6.5-5.37c0.75-0.8,0.82-2.52,0.73-3.79c-0.79-10.58,2.1-19.99,9.03-28.01c3.99-4.62,9.18-7.32,15.32-7.91
		c8.41-0.8,14.16,6.66,12.14,15.66c-1.92,8.52-9.34,14.84-18.42,15.68c-1.45,0.13-2.91,0.19-4.34,0.29
		c-1.26,7.47,4.91,16.12,14.25,12.59c6.25-2.36,10.88-6.61,12.25-13.64c1.75-8.97,3.6-17.92,5.42-26.88
		c0.21-1.02,0.49-2.02,0.75-3.08c4.62,0,9.11,0,13.87,0c-0.51,3.01-0.98,5.83-1.53,9.08c10.33-11.02,17.86-12.52,27.51-5.56
		c-2.86,2.39-5.61,4.78-8.5,7.02c-0.46,0.35-1.6,0.25-2.19-0.07c-4.48-2.47-8.28-1.09-11.89,1.84c-5.71,4.64-8.33,10.74-9.28,17.96
		c-0.89,6.75-2.49,13.41-3.82,20.29c-4.81,0-9.48,0-14.42,0c0.45-2.51,0.88-4.93,1.38-7.72c-10.92,11.86-31.02,10.61-35.53,0.22
		c-3.13,2.12-6.1,4.65-9.51,6.27c-2.65,1.26-5.85,1.98-8.77,1.87c-5.28-0.19-8.21-3.68-9.27-9.3c-1.29,1.21-2.15,2.05-3.05,2.85
		c-4.02,3.58-8.47,6.23-14.05,6.35c-5.93,0.13-8.62-1.81-10.47-7.46c-0.16-0.49-0.38-0.95-0.59-1.48
		c-10.59,12.35-23.52,11.03-29.42,3.03c-8.07,5.22-16.99,7.46-26.6,6.97c-5.85-0.3-11.43-1.68-16.57-4.51
		c-8.63-4.75-12.56-12.41-13.11-21.97C576.62,757.1,579.72,746.02,586.02,735.55z M660.28,781.69c1.17-1.83,2.95-3.52,3.41-5.52
		c1.59-6.84,2.54-13.83,4.11-20.67c0.6-2.61-0.11-4.26-1.95-5.75c-1.97-1.59-4.31-2.19-6.43-0.74c-2.3,1.57-4.59,3.39-6.27,5.57
		c-3.58,4.64-5.76,10.08-6.37,15.88c-0.46,4.42-0.61,9.02,0.07,13.38c0.64,4.06,3.73,5.11,7.32,2.96
		C656.3,785.53,658.05,783.63,660.28,781.69z M735.07,755.48c-1.81,4.39-3.62,8.78-5.58,13.55c1.42,0.14,1.93,0.25,2.43,0.24
		c8.29-0.32,14.64-8.32,14.05-17.7c-0.18-2.88-1.71-4.1-4.09-2.57C739.39,750.57,737.46,753.01,735.07,755.48z"/>
	<path class="st5" d="M900.51,486.07c-55.82-19.79-111.4-39.5-167.01-59.14c-2.14-0.76-2.51-1.69-2.32-3.85
		c1.38-15.5,2.58-31.02,3.85-46.53c0.04-0.51,0.16-1,0.31-1.86c68.27,41.65,136.34,83.19,204.41,124.72
		c-0.08,0.17-0.15,0.34-0.23,0.51C926.58,495.34,913.66,490.75,900.51,486.07z"/>
	<path class="st5" d="M733.96,473.31c-1.5-10.56-2.98-20.83-4.52-31.47c71,21.8,141.64,43.48,212.28,65.17
		c-0.04,0.15-0.07,0.3-0.11,0.45c-68.28-5.3-136.56-10.59-204.94-15.9C735.75,485.4,734.86,479.49,733.96,473.31z"/>
	<path class="st6" d="M799.85,884.41c-3.41,1.78-6.63,4.26-10.26,5.2c-6.27,1.63-9.44-0.67-12.19-7.62
		c-3.53,3.96-7.45,7.18-12.83,7.86c-5.53,0.7-10.2-0.75-13.54-5.75c-3.78,3.08-7.71,5.64-12.67,5.81c-5.35,0.19-8.1-2.12-9.84-8.51
		c-3.62,4.31-7.76,7.62-13.36,8.34c-5.72,0.73-10.31-1.25-13.56-6.44c-4.78,4.72-10.4,6.75-16.9,6.69
		c-8.96-0.08-13.78-4.03-15.44-12.93c-2.16-11.6,4.4-26.06,14.15-31.1c1.29-0.67,2.68-1.23,4.08-1.6c4.28-1.14,8.46-1.06,11.69,2.46
		c3.33,3.64,3.41,8.07,1.99,12.46c-2.26,6.95-7.43,10.73-14.41,12.17c-1.84,0.38-3.73,0.48-5.58,0.71c-0.41,4.95,2.1,9.64,5.92,11.1
		c3.84,1.47,10.05-0.21,12.61-3.54c0.44-0.57,0.53-1.53,0.51-2.3c-0.25-10.56,2.57-20.02,10.52-27.32
		c5.15-4.73,11.24-7.44,18.46-5.8c1.77,0.4,3.4,1.44,5.19,2.23c1.35-6.58,2.72-13.24,4.13-20.09c4.08,0,8.13,0,12.47,0
		c-1.4,7.16-2.78,14.25-4.18,21.33c-2.13,10.72-4.32,21.42-6.34,32.17c-0.24,1.26,0.11,3.14,0.94,3.94c0.62,0.59,2.61,0.2,3.75-0.29
		c2.64-1.15,4.31-2.58,4.15-6.3c-0.37-9.13,1.91-17.75,7.84-25.02c4.3-5.27,9.93-7.95,16.77-7.95c7.46,0,14.92,0,22.81,0
		c-1.51,7.18-2.96,14.11-4.42,21.05c-1.03,4.94-2.17,9.86-3.01,14.82c-0.22,1.27,0.1,3.11,0.93,3.92c0.62,0.61,2.68,0.39,3.7-0.17
		c4.53-2.51,8.12-5.84,9.17-11.32c1.78-9.29,3.73-18.54,5.66-28.05c3.98,0,8.03,0,12.4,0c-0.23,1.66-0.47,3.44-0.62,4.56
		c3.46-1.64,6.95-3.87,10.77-4.97c6.09-1.76,11.38,1.57,11.78,7.86c0.34,5.34-0.79,10.81-1.51,16.18c-0.54,4.06-1.59,8.05-2.13,12.1
		c-0.17,1.3,0.19,3.52,0.98,3.9c1.1,0.51,3.25,0.17,4.2-0.67c2.63-2.32,5.09-4.93,7.21-7.73c1.65-2.18,1.38-2.38,4.36-2.14
		c-1.27,7.33-10.09,15.63-17.26,16.25c-6,0.51-10.48-2.42-10.79-8.38c-0.28-5.46,0.78-11.02,1.49-16.5
		c0.5-3.85,1.53-7.63,2.07-11.47c0.17-1.23-0.07-3.27-0.82-3.68c-1.01-0.56-2.95-0.35-4.04,0.29c-4.7,2.75-8.04,6.55-9.02,12.23
		c-1.55,9-3.38,17.95-5.12,27.05c-4.3,0-8.47,0-12.88,0c0.2-1.43,0.39-2.74,0.68-4.41c0.11-0.63,0.11-0.91,0.12-1.18
		C800.37,884.03,800.11,884.22,799.85,884.41z M732.16,857.45c0.06-2.19,0.92-4.83,0.01-6.49c-2.15-3.91-6.75-3.56-10.57,0.49
		c-4.88,5.18-7.01,11.64-7.85,18.51c-0.39,3.18-0.35,6.51,0.1,9.68c0.47,3.23,2.85,4.86,5.33,3.75c4.7-2.11,8.6-5.41,9.97-10.59
		C730.44,867.93,731.13,862.92,732.16,857.45z M771.11,851.48c-4.74,4.71-7.18,10.61-8.06,17.04c-0.53,3.88-0.48,7.95,0.05,11.83
		c0.44,3.26,3.18,4.55,5.85,3.03c4.51-2.58,8.46-5.86,9.58-11.37c1.15-5.65,2.18-11.33,3.34-16.99c0.42-2.05,0.18-4.05-1.72-4.93
		c-1.65-0.76-3.7-0.99-5.54-0.88C773.51,849.28,772.49,850.47,771.11,851.48z M688.43,865.63c4.8-3.17,6.65-7.93,6.88-13.39
		c0.14-3.26-1.54-4.21-4.37-2.83c-4.86,2.37-10.12,12.64-9.17,18.41C683.89,867.15,685.95,866.51,688.43,865.63z"/>
	<path class="st4" d="M904.36,817.79c-7.12,2.25-13.85,1.34-20.92-0.74c3.24-3.4,6.2-6.52,9.15-9.63c2.24,1.04,4.32,2.25,6.56,3
		c3.46,1.16,5.09,0.14,5.81-3.35c1.33-6.43,2.62-12.86,3.99-19.59c-12.26,9.13-20.06,9.47-27.89,1.49c-2.49,1.47-4.86,3.2-7.48,4.34
		c-9.26,4.01-17.28-0.99-17-11.05c0.18-6.45,1.73-12.87,2.72-19.3c0.53-3.42,1.37-6.81,1.68-10.25c0.32-3.55-1.5-4.8-4.67-3.14
		c-5.4,2.83-9.47,6.91-10.67,13.24c-1.82,9.6-3.74,19.18-5.46,28.79c-0.35,1.94-0.95,2.71-2.98,2.63
		c-3.87-0.15-7.74-0.04-12.04-0.04c0.4-2.35,0.74-4.37,1.19-7.01c-1.62,1.24-2.79,2.15-3.99,3.03c-3.73,2.75-7.88,4.61-12.53,4.51
		c-7.36-0.16-11.73-6.32-10.55-14.85c0.72-5.19,1.86-10.33,2.9-15.48c1.42-7,2.93-13.97,4.41-21.03c4.67,0,9.17,0,14.14,0
		c-1.03,5.43-1.99,10.75-3.06,16.04c-1.51,7.52-3.11,15.02-4.64,22.53c-0.19,0.92-0.3,1.88-0.32,2.82c-0.07,3.27,1.58,4.6,4.59,3.26
		c6.44-2.86,10.59-7.72,11.99-14.78c1.95-9.88,3.97-19.74,6-29.78c4.67,0,9.25,0,14.04,0c-0.38,2.13-0.74,4.16-0.96,5.38
		c3.97-1.82,8.07-4.46,12.56-5.59c7.37-1.85,13.09,2.72,13.05,10.39c-0.02,5.71-1.22,11.43-2.06,17.12
		c-0.67,4.57-1.79,9.08-2.32,13.66c-0.49,4.2,1.56,5.41,5.33,3.49c2.82-1.43,3.91-3.16,3.64-6.87
		c-0.92-12.72,2.49-24.18,12.49-32.86c4.2-3.64,9.24-5.24,14.84-5.2c8.71,0.06,17.42,0.02,26.53,0.02
		c-0.93,4.63-1.8,9.14-2.75,13.63c-2.72,12.95-5.29,25.93-8.33,38.8c-1,4.22-3.01,8.29-5.08,12.15
		C913.72,812.35,909.78,815.83,904.36,817.79z M913.29,748.47c-3.6-1.8-6.36-1.37-9.66,1.83c-6.09,5.91-8.97,13.45-9.87,21.65
		c-0.44,3.98-0.13,8.17,0.61,12.11c0.59,3.12,3.17,4.41,5.74,3.15c5.3-2.59,9.83-6.25,11.31-12.31c1.62-6.63,2.74-13.39,4.22-20.05
		C916.22,752.31,915.82,750.3,913.29,748.47z"/>
	<path class="st7" d="M637.82,851.83c-0.5,4.02-0.98,7.76-1.46,11.51c0.16,0.08,0.33,0.16,0.49,0.24c0.41-0.59,0.85-1.16,1.21-1.78
		c7.26-12.55,14.57-25.06,21.69-37.68c1.11-1.97,2.32-2.62,4.44-2.5c2.71,0.16,5.44,0.04,8.74,0.04
		c-4.57,22.76-9.07,45.22-13.57,67.63c-4.28,0-8.34,0-12.77,0c2.9-12.92,5.75-25.57,8.59-38.21c-0.17-0.08-0.33-0.16-0.5-0.24
		c-0.38,0.61-0.79,1.21-1.15,1.84c-6.51,11.41-13.04,22.8-19.48,34.24c-0.97,1.73-1.98,2.66-4.14,2.48
		c-2.8-0.24-5.64-0.06-8.79-0.06c1.39-13.16,2.76-26.03,4.12-38.91c-0.15-0.05-0.31-0.1-0.46-0.14c-3.6,7.77-7.2,15.53-10.79,23.31
		c-1.98,4.29-4.03,8.55-5.84,12.91c-0.88,2.12-1.98,3.2-4.41,2.88c-1.75-0.23-3.55-0.05-5.81-0.05c9.23-20,18.31-39.66,27.43-59.41
		c-13.59-0.5-17.82,6.41-12.55,20.57c-3.94,1.82-7.91,3.64-11.9,5.48c-3.7-12.8,2.69-26.27,14.71-31
		c8.27-3.25,16.92-3.77,25.85-3.28C640.26,831.76,639.05,841.65,637.82,851.83z"/>
	<path class="st4" d="M807.87,732.06c-0.31-6.9,3.79-11.22,9.33-10.15c3.77,0.73,6.8,4.26,6.83,7.97c0.03,3.76-2.88,7.15-6.8,7.92
		C812.98,738.65,809.82,736.79,807.87,732.06z"/>
	<path class="st8" d="M430.54,217.9c-0.14,0.22-0.5,0.32-0.97,0.56c-8.15-1.16-16.15-2.62-24.2-3.7c-6.71-0.9-13.49-1.34-20.43-2.14
		c11.39,0.96,22.98,2,34.56,3.22C423.14,216.23,426.72,217.12,430.54,217.9z"/>
	<path class="st1" d="M453.7,225.77c0.4-0.09,0.91-0.01,1.54,0.23C454.84,226.09,454.33,226.01,453.7,225.77z"/>
	<path class="st1" d="M451.69,225.23c0.43-0.12,0.99-0.07,1.66,0.16C452.92,225.51,452.37,225.45,451.69,225.23z"/>
	<path class="st3" d="M286.71,178.83c-0.02,0.11-0.01,0.24-0.02,0.37c0,0.02-0.14,0.01-0.21,0.02c-0.01-0.12-0.02-0.24,0.13-0.35
		C286.76,178.87,286.73,178.84,286.71,178.83z"/>
	<path class="st0" d="M799.97,884.53c0.14-0.31,0.39-0.5,0.65-0.69c0,0.27-0.01,0.55-0.15,0.93
		C800.26,884.8,800.18,884.73,799.97,884.53z"/>
</g>
</svg>
